<?xml version="1.0" encoding="UTF-8"?>
<svg xmlns="http://www.w3.org/2000/svg" width="759" height="647" viewBox="85 281 759 647">
<g transform="translate(0.000000,1280.000000) scale(0.100000,-0.100000)"
fill="#e2606c" stroke="none">
<path d="M2995 9147 c-60 -5 -112 -12 -115 -16 -6 -8 -5 -7 -135 -21 -111 -12
-160 -24 -172 -43 -3 -6 -1 -7 5 -3 7 4 12 3 12 -3 0 -6 -12 -13 -27 -17 -16
-3 -39 -10 -53 -15 -74 -26 -273 -73 -327 -76 -53 -4 -63 -8 -63 -23 0 -11 12
-31 27 -46 25 -25 29 -26 57 -14 45 18 252 98 316 122 30 11 114 35 185 53 72
18 117 34 101 34 -15 1 -54 -5 -85 -13 -153 -38 -141 -22 15 20 96 26 108 27
379 28 235 1 297 -2 388 -18 59 -11 110 -16 114 -13 15 15 -34 34 -116 45
-262 35 -305 37 -506 19z"/>
<path d="M2848 9083 c6 -2 18 -2 25 0 6 3 1 5 -13 5 -14 0 -19 -2 -12 -5z"/>
<path d="M3630 9080 c0 -8 60 -23 67 -17 1 2 -13 8 -32 14 -19 6 -35 8 -35 3z"/>
<path d="M3160 9071 c-14 -5 -61 -10 -105 -10 -68 -1 -222 -27 -367 -62 -21
-5 -55 -13 -75 -18 -41 -9 -38 -8 -168 -58 -186 -72 -471 -205 -487 -227 -3
-5 0 -22 8 -37 8 -16 14 -34 14 -42 0 -8 13 -54 29 -103 15 -49 38 -123 50
-164 12 -41 26 -86 31 -100 4 -14 13 -45 20 -70 6 -25 16 -53 21 -62 5 -10 9
-29 9 -42 0 -14 4 -27 9 -30 5 -3 11 -20 14 -38 2 -18 14 -69 26 -113 23 -82
25 -93 61 -300 72 -409 85 -532 85 -797 0 -191 2 -198 50 -164 22 15 186 86
199 86 4 0 20 8 34 18 15 10 50 25 77 32 28 7 91 25 140 41 313 99 597 134
913 112 51 -3 95 -10 98 -14 3 -5 21 -9 41 -9 39 0 142 -24 188 -45 17 -7 52
-21 80 -31 27 -10 98 -51 158 -91 59 -40 115 -73 123 -73 45 0 44 -23 44 890
0 474 2 866 6 871 11 19 -148 247 -234 335 -26 27 -63 58 -81 69 -19 11 -66
39 -105 63 -135 83 -264 132 -466 178 -42 10 -413 14 -440 5z m950 -647 c0
-21 -29 -43 -56 -44 -40 0 -94 -30 -104 -56 -6 -14 -10 -100 -10 -192 -1 -123
-4 -172 -14 -184 -7 -10 -16 -18 -19 -18 -17 0 -28 96 -26 226 1 79 0 147 -3
149 -2 2 -15 -1 -28 -8 -38 -19 -55 -15 -52 12 3 29 34 58 73 66 16 4 29 11
29 16 0 5 11 9 24 9 14 0 28 5 31 10 3 6 18 10 33 10 15 0 34 5 42 10 26 17
80 12 80 -6z m-396 -231 c-6 -212 -9 -242 -28 -261 -22 -22 -26 -14 -30 64 -3
38 -7 77 -11 87 -10 24 -45 21 -77 -8 -26 -22 -28 -30 -28 -100 0 -67 -2 -75
-19 -75 -10 0 -22 8 -27 18 -12 27 -25 136 -30 259 -5 89 -3 117 10 140 8 15
15 22 16 14 0 -11 3 -11 15 -1 13 11 15 4 16 -56 1 -38 4 -81 8 -95 l6 -26 53
16 52 15 0 86 c0 75 3 89 22 110 l21 23 18 -22 c15 -18 17 -40 13 -188z m-986
147 c28 -17 32 -25 32 -62 0 -54 -43 -177 -69 -198 -3 -3 -16 -24 -28 -46 -23
-42 -30 -74 -15 -74 4 0 13 -12 19 -28 7 -15 40 -56 73 -90 46 -48 60 -70 60
-93 0 -19 -5 -29 -15 -29 -16 0 -185 165 -185 181 0 9 -40 39 -52 39 -5 0 -8
-52 -8 -115 0 -63 -2 -115 -4 -115 -26 0 -36 16 -36 62 0 27 -4 57 -8 66 -8
16 10 274 23 339 4 17 3 39 -2 48 -9 15 -13 14 -41 -10 -18 -15 -32 -31 -32
-36 0 -6 -9 -19 -20 -31 l-20 -22 0 33 c0 26 12 44 64 96 35 36 68 65 75 65
10 0 20 4 71 31 28 14 85 9 118 -11z m578 -14 c9 -24 12 -51 5 -61 -3 -5 -7
-21 -9 -35 -6 -45 -19 -42 -31 5 -13 51 -14 51 -68 -2 -51 -50 -94 -165 -74
-201 6 -11 11 -35 11 -52 0 -62 89 -110 106 -57 4 12 8 39 9 59 1 32 -3 39
-27 49 -15 6 -28 16 -28 22 0 16 31 47 47 47 7 0 13 5 13 10 0 6 6 10 13 10 8
0 22 9 32 20 10 11 26 20 36 20 15 0 18 -12 21 -92 4 -125 0 -168 -17 -168
-15 0 -25 22 -25 56 0 13 -4 24 -10 24 -5 0 -10 -16 -10 -35 0 -22 -8 -44 -20
-57 -11 -12 -20 -28 -20 -35 0 -9 -15 -13 -50 -13 -31 0 -50 4 -50 12 0 6 -3
9 -6 5 -7 -6 -40 32 -61 70 -8 14 -13 59 -13 112 0 89 18 147 58 189 6 7 12
17 12 22 0 11 51 64 75 78 28 16 75 15 81 -2z m-345 -28 c4 -77 -1 -470 -6
-478 -9 -15 -32 -1 -43 28 -12 31 -9 388 3 440 9 39 44 46 46 10z m1063 -547
c8 -13 -21 -34 -39 -27 -20 7 -8 36 15 36 11 0 21 -4 24 -9z m-44 -39 c0 -5
-9 -19 -20 -32 -11 -13 -20 -28 -21 -34 0 -6 -4 -2 -8 9 -5 13 -1 26 13 41 22
24 36 30 36 16z m-460 -85 c0 -13 -59 -47 -81 -47 -6 0 -17 -6 -25 -14 -11
-12 -14 -52 -14 -194 0 -99 -3 -187 -6 -196 -9 -23 -34 -20 -34 4 0 11 -4 20
-10 20 -6 0 -10 60 -10 160 0 137 -2 160 -15 160 -16 0 -74 -37 -86 -54 -8
-11 -39 -1 -39 13 0 29 128 119 172 122 7 0 27 9 43 19 36 22 105 27 105 7z
m160 -75 c32 -31 40 -46 40 -75 0 -20 -4 -39 -10 -42 -5 -3 -10 -16 -10 -27 0
-12 -11 -40 -25 -64 -31 -52 -79 -73 -126 -54 -29 12 -29 13 -29 96 0 81 8
109 38 143 7 7 20 24 29 37 22 34 46 30 93 -14z m364 19 c10 -15 -31 -51 -58
-51 -32 0 -33 13 -4 40 23 21 53 26 62 11z m-1134 -29 c0 -11 32 -12 45 -2 8
6 35 7 78 1 4 -1 7 -5 7 -10 0 -13 -128 -13 -135 0 -4 5 -11 7 -16 4 -5 -4 -9
-1 -9 4 0 6 7 11 15 11 8 0 15 -4 15 -8z m116 -147 c-9 -10 -16 -12 -16 -5 0
7 -14 4 -36 -9 -19 -12 -49 -20 -65 -19 -33 3 -40 17 -9 19 33 2 38 4 46 12 4
4 16 7 26 7 11 0 26 7 35 16 11 10 19 12 26 5 6 -6 4 -15 -7 -26z m994 -3 c0
-7 37 -25 77 -36 36 -11 42 -56 6 -56 -14 0 -92 38 -103 51 -3 3 -13 8 -22 12
-25 9 -11 37 18 37 13 0 24 -3 24 -8z m-986 -150 c-57 -75 -69 -85 -83 -68
-11 13 -9 21 15 50 16 19 43 51 59 72 l30 38 3 -28 c2 -18 -6 -40 -24 -64z"/>
<path d="M2637 8283 c-4 -3 -20 -6 -37 -5 -35 1 -47 -13 -30 -33 7 -9 9 -24 5
-37 -4 -13 -11 -50 -16 -83 -4 -33 -11 -75 -15 -92 -5 -25 -3 -33 7 -33 19 0
76 55 84 80 3 11 10 20 14 20 9 0 42 67 59 118 9 29 8 36 -9 53 -19 19 -50 25
-62 12z"/>
<path d="M3300 8066 c0 -8 5 -18 10 -21 6 -3 10 3 10 14 0 12 -4 21 -10 21 -5
0 -10 -6 -10 -14z"/>
<path d="M3580 7473 c-23 -50 -23 -47 -9 -95 12 -44 29 -48 63 -15 27 26 41
93 26 131 -16 42 -55 32 -80 -21z"/>
<path d="M4185 8830 c3 -5 11 -10 16 -10 6 0 7 5 4 10 -3 6 -11 10 -16 10 -6
0 -7 -4 -4 -10z"/>
<path d="M2000 8387 c0 -60 -1 -63 -31 -76 -27 -12 -33 -12 -40 0 -6 9 -8 -20
-5 -76 3 -65 12 -106 29 -148 25 -60 37 -79 37 -59 0 30 18 8 24 -28 3 -23 11
-49 16 -58 13 -22 50 -141 50 -159 0 -8 8 -28 17 -46 9 -18 20 -52 24 -77 15
-82 28 -154 39 -210 38 -189 47 -239 62 -350 13 -99 14 -291 3 -437 -7 -90 -6
-103 8 -103 9 0 19 5 22 10 3 6 15 10 26 10 20 0 21 4 15 263 -3 144 -10 298
-15 342 -5 44 -14 125 -20 180 -12 109 -24 185 -40 255 -14 60 -29 134 -40
195 -6 28 -15 70 -21 95 -6 25 -14 61 -16 80 -3 19 -9 44 -14 55 -4 11 -14 41
-21 68 -8 26 -17 47 -21 47 -4 0 -8 9 -8 20 0 31 -67 270 -75 270 -3 0 -5 -28
-5 -63z m-20 -159 c0 -38 -5 -34 -13 10 -4 21 -3 31 3 27 6 -3 10 -20 10 -37z
m60 -88 c0 -5 -2 -10 -4 -10 -3 0 -8 5 -11 10 -3 6 -1 10 4 10 6 0 11 -4 11
-10z m20 -66 c0 -8 -4 -12 -10 -9 -5 3 -10 13 -10 21 0 8 5 12 10 9 6 -3 10
-13 10 -21z m27 -76 c16 -58 23 -185 9 -161 -6 10 -13 52 -17 93 -3 41 -9 83
-13 93 -5 9 -4 17 1 17 5 0 14 -19 20 -42z m53 -234 c0 -14 -4 -22 -10 -19 -5
3 -10 17 -10 31 0 14 4 22 10 19 6 -3 10 -17 10 -31z m20 -77 c0 -5 -4 -5 -10
-2 -5 3 -10 14 -10 23 0 15 2 15 10 2 5 -8 10 -19 10 -23z m120 -937 c0 -16
-4 -30 -10 -30 -5 0 -10 14 -10 30 0 17 5 30 10 30 6 0 10 -13 10 -30z m0
-104 c0 -19 -4 -38 -10 -41 -6 -4 -10 10 -10 34 0 23 5 41 10 41 6 0 10 -15
10 -34z"/>
<path d="M3420 6882 c-41 -7 -100 -17 -130 -21 -102 -15 -224 -42 -320 -71
-52 -15 -116 -34 -142 -41 -27 -7 -48 -17 -48 -21 0 -4 -9 -8 -19 -8 -11 0
-23 -4 -26 -10 -3 -5 -17 -10 -31 -10 -13 0 -24 -3 -24 -8 0 -7 -70 -32 -92
-32 -7 0 -52 -19 -100 -41 l-86 -42 -4 -46 c-3 -25 -3 -48 -1 -51 4 -5 254
118 263 130 3 3 52 21 110 40 58 19 107 38 108 42 2 5 11 8 21 8 9 0 21 4 27
8 5 5 29 14 54 22 67 19 162 50 185 60 11 5 40 11 65 15 25 3 64 9 88 12 23 3
42 10 42 14 0 5 33 9 74 9 41 0 85 4 98 9 14 5 68 6 123 1 55 -4 83 -8 63 -9
-21 0 -38 -5 -38 -11 0 -6 -28 -10 -63 -10 -66 0 -250 -23 -327 -41 -25 -6
-65 -14 -90 -18 -25 -4 -74 -20 -109 -34 -36 -15 -72 -27 -80 -27 -9 0 -41 -9
-71 -21 -30 -12 -70 -27 -87 -33 -18 -7 -36 -15 -39 -19 -4 -4 -17 -7 -29 -7
-11 0 -25 -4 -31 -9 -5 -5 -38 -19 -74 -31 -36 -12 -110 -44 -166 -70 -139
-67 -139 -67 -137 -2 2 42 -1 52 -13 52 -12 0 -15 -6 -11 -21 3 -11 -3 -53
-13 -92 -10 -40 -15 -75 -12 -79 4 -4 41 13 83 37 42 24 112 56 155 70 44 15
98 35 121 46 24 10 49 19 56 19 7 0 17 4 23 8 5 5 29 14 54 22 25 7 84 26 131
41 48 16 96 29 108 29 12 0 50 9 84 19 34 11 114 24 177 30 63 6 140 13 170
17 102 10 284 9 400 -4 207 -23 316 -48 429 -99 29 -13 55 -22 58 -20 6 7 -77
71 -127 98 -25 13 -46 27 -48 32 -2 4 -9 7 -16 7 -7 0 -31 9 -54 20 -22 11
-46 20 -52 20 -5 0 -18 4 -28 9 -29 14 -87 31 -110 31 -11 0 -24 5 -27 10 -3
6 -30 10 -58 11 -75 1 -108 17 -37 18 113 1 437 -120 526 -195 31 -27 53 -32
33 -8 -44 53 -303 183 -405 204 -27 5 -67 15 -89 21 -125 34 -341 44 -465 21z"/>
<path d="M3520 6689 c0 -4 -33 -10 -72 -13 -116 -8 -218 -22 -288 -39 -36 -9
-99 -23 -140 -32 -41 -9 -88 -22 -105 -30 -16 -7 -61 -23 -100 -35 -38 -12
-78 -26 -87 -31 -10 -5 -25 -9 -33 -9 -8 0 -15 -4 -15 -10 0 -5 -6 -10 -12
-10 -16 0 -161 -57 -212 -84 -37 -20 -67 -68 -52 -83 7 -7 96 26 96 35 0 6 70
41 130 65 14 5 34 13 45 18 62 25 147 50 152 45 3 -3 -7 -10 -23 -16 -16 -6
-36 -17 -44 -25 -8 -7 -50 -25 -93 -40 -92 -31 -148 -58 -172 -85 -32 -35 17
-20 184 56 54 25 94 39 181 64 25 7 65 22 90 33 76 33 119 46 125 37 3 -4 -9
-11 -27 -15 -18 -4 -56 -18 -85 -32 -29 -14 -68 -29 -88 -34 -19 -5 -50 -13
-68 -17 -18 -5 -48 -16 -67 -24 -19 -9 -51 -22 -70 -31 -19 -8 -60 -27 -91
-41 -31 -14 -61 -26 -66 -26 -13 0 -23 -24 -23 -56 0 -35 41 -32 131 10 41 19
115 53 164 76 50 23 124 53 165 66 41 13 93 32 115 42 48 22 327 100 510 142
22 5 112 16 200 25 146 14 198 14 335 -1 84 -9 19 13 -103 36 -141 25 -310 28
-447 6 -52 -8 -104 -18 -115 -22 -13 -5 -17 -4 -10 3 15 16 74 33 111 33 23 0
37 6 44 20 8 15 21 20 58 21 97 1 77 14 -24 15 -57 0 -104 -3 -104 -7z m-95
-59 c-11 -5 -36 -9 -56 -9 -20 -1 -56 -8 -80 -17 -40 -14 -79 -22 -189 -41
-24 -4 -32 -2 -25 5 6 5 28 12 50 15 81 12 141 25 180 40 42 16 158 23 120 7z
m-110 -60 c-3 -5 -20 -10 -36 -10 -17 0 -39 -5 -51 -11 -11 -6 -22 -8 -25 -5
-3 3 10 12 28 20 39 17 93 21 84 6z m-260 -20 c-3 -5 -16 -10 -28 -10 -18 0
-19 2 -7 10 20 13 43 13 35 0z m-60 -20 c-3 -5 -16 -10 -28 -10 -18 0 -19 2
-7 10 20 13 43 13 35 0z m-60 -20 c-3 -5 -17 -10 -31 -10 -14 0 -22 4 -19 10
3 6 17 10 31 10 14 0 22 -4 19 -10z m-70 -20 c-3 -5 -10 -10 -16 -10 -5 0 -9
5 -9 10 0 6 7 10 16 10 8 0 12 -4 9 -10z"/>
<path d="M3788 6692 c-34 -2 -48 -7 -48 -18 0 -11 21 -14 113 -14 97 -1 132
-6 260 -39 214 -56 190 -32 -33 33 -30 8 -95 20 -144 26 -49 6 -92 12 -95 13
-3 1 -27 1 -53 -1z"/>
</g>
<g transform="translate(0.000000,1280.000000) scale(0.100000,-0.100000)"
fill="#7b95cf" stroke="none">
<path d="M6548 9091 c-127 -65 -186 -73 -593 -82 -495 -11 -610 -24 -795 -91
-172 -63 -246 -104 -414 -233 -78 -59 -218 -182 -224 -197 -2 -5 6 -8 17 -8
19 0 21 -6 21 -54 0 -34 -5 -56 -12 -59 -10 -4 -10 -6 0 -6 14 -1 17 -41 2
-41 -5 0 -10 -13 -10 -30 0 -16 -4 -30 -10 -30 -6 0 -10 -27 -10 -60 0 -33 4
-60 10 -60 6 0 10 -18 10 -40 0 -22 5 -40 10 -40 6 0 10 -13 10 -29 0 -16 6
-31 13 -34 7 -2 0 -15 -21 -35 l-32 -30 0 -446 c1 -279 4 -446 10 -446 6 0 10
-64 10 -160 0 -100 -4 -160 -10 -160 -6 0 -10 -30 -10 -70 l0 -69 38 13 c20 7
60 27 87 45 28 17 59 35 70 40 12 5 27 16 34 25 7 9 22 16 31 16 10 0 20 4 22
9 2 5 32 15 68 21 36 7 74 16 85 20 46 19 258 44 365 43 134 -1 424 -25 555
-47 224 -38 311 -45 527 -46 l197 -1 5 23 c3 13 10 79 16 148 6 69 15 159 21
200 5 41 12 102 15 135 3 33 17 103 31 155 13 52 28 115 32 140 5 25 22 99 39
165 16 66 47 190 67 275 20 85 49 193 65 240 78 232 141 478 118 464 -4 -3 -8
1 -8 9 0 8 -7 18 -16 21 -8 3 -13 10 -9 15 3 6 -24 -3 -60 -20 -137 -62 -493
-132 -635 -125 -110 5 -112 5 -104 17 4 7 21 9 40 6 19 -3 36 -1 39 4 4 5 45
9 92 9 47 0 102 4 122 10 20 5 104 23 186 40 83 18 184 41 226 52 75 20 76 21
58 39 -11 11 -23 19 -29 19 -5 0 -10 6 -10 14 0 8 -5 18 -12 22 -6 4 -8 3 -5
-3 8 -13 -47 -45 -66 -37 -8 3 -18 1 -22 -5 -4 -7 1 -9 12 -5 10 3 -11 -10
-47 -29 -36 -19 -80 -37 -99 -41 -43 -8 -31 6 16 19 32 9 37 15 48 58 l12 49
-26 -5 c-14 -3 -38 -8 -53 -11 -25 -6 -28 -4 -29 21 l-1 28 -9 -30 c-8 -31 -4
116 7 248 7 79 5 80 -78 38z m-1323 -865 c38 -25 74 -126 45 -126 -5 0 -10 -7
-10 -15 0 -18 -26 -73 -44 -91 -83 -89 -148 -153 -161 -157 -16 -7 -21 -37 -7
-37 5 0 13 -8 18 -19 11 -24 52 -75 135 -170 57 -66 64 -79 54 -97 -10 -20
-12 -20 -35 -6 -33 21 -80 64 -80 74 0 4 -16 24 -36 44 -19 21 -47 53 -62 73
-15 20 -37 46 -49 59 l-23 23 -1 -33 c-1 -18 -3 -72 -4 -119 -3 -108 -12 -162
-28 -156 -21 7 -23 54 -19 337 4 266 4 274 -14 260 -11 -8 -25 -23 -33 -34
-11 -14 -15 -15 -22 -5 -6 11 -9 10 -15 -4 -3 -9 -11 -17 -16 -17 -6 0 -7 7
-4 16 3 8 2 12 -4 9 -17 -11 -11 5 21 51 46 68 157 144 229 158 42 8 142 -3
165 -18z m707 -127 c4 -13 13 -45 20 -71 14 -49 16 -276 3 -317 -12 -40 -30
-16 -35 50 l-5 64 -35 -3 c-78 -7 -119 -36 -120 -85 0 -25 -34 -87 -52 -95 -5
-2 -8 -10 -8 -18 0 -17 -14 -18 -28 -1 -5 7 -6 21 -1 32 4 11 8 34 8 52 1 17
6 35 11 38 6 3 10 26 10 50 0 24 4 45 9 47 6 2 12 17 15 33 2 17 5 30 6 30 1
0 3 7 5 16 7 39 72 156 106 192 37 38 40 39 61 25 13 -9 26 -26 30 -39z m426
14 c42 -20 81 -71 89 -115 8 -50 -44 -143 -123 -223 -36 -36 -69 -65 -74 -65
-6 0 -10 -7 -10 -15 0 -8 -7 -15 -16 -15 -9 0 -28 -9 -43 -19 -15 -11 -40 -23
-57 -27 -16 -4 -34 -11 -40 -15 -17 -13 -14 23 4 44 8 9 22 17 30 17 12 0 13
9 8 46 -3 26 -6 112 -6 192 0 139 -1 144 -20 139 -23 -6 -26 11 -7 36 33 47
185 58 265 20z m-738 -13 c0 -21 -36 -47 -71 -53 -56 -8 -109 -47 -109 -79 0
-15 -4 -30 -10 -33 -13 -8 -13 -65 1 -65 5 0 8 3 6 8 -3 4 9 7 26 8 18 1 49 5
69 9 31 6 39 4 44 -9 9 -24 -29 -61 -93 -92 -29 -15 -53 -33 -53 -40 0 -8 8
-32 17 -54 14 -32 23 -40 45 -40 14 0 28 3 30 8 2 4 20 15 41 24 26 13 37 14
37 5 -1 -21 -23 -42 -74 -70 -53 -29 -82 -34 -89 -14 -3 9 -7 9 -19 0 -23 -19
-45 3 -68 69 -22 64 -37 178 -23 178 5 0 8 14 7 31 -3 37 14 89 28 89 5 0 7 4
4 9 -10 16 78 96 119 107 53 15 135 17 135 4z m640 -660 c0 -13 -29 -20 -90
-20 -42 0 -59 4 -64 15 -4 10 1 15 14 15 11 0 20 -6 20 -12 1 -9 4 -8 9 2 7
11 23 14 60 12 28 -2 51 -8 51 -12z m-167 -4 c9 -22 -34 -33 -48 -12 -15 20
-35 21 -35 1 0 -10 -10 -15 -27 -15 l-28 1 24 19 c28 24 106 28 114 6z m214 8
c-3 -3 -12 -4 -19 -1 -8 3 -5 6 6 6 11 1 17 -2 13 -5z m58 -4 c3 -5 -1 -10
-10 -10 -9 0 -13 5 -10 10 3 6 8 10 10 10 2 0 7 -4 10 -10z m-449 -15 c14 -13
13 -15 -4 -15 -11 0 -23 6 -25 13 -3 7 -6 5 -6 -5 -1 -13 -9 -18 -31 -18 -16
0 -30 5 -30 11 0 5 -4 8 -9 4 -5 -3 -13 0 -17 7 -4 7 -4 10 0 7 4 -4 19 -3 34
1 43 13 72 11 88 -5z m41 9 c-3 -3 -12 -4 -19 -1 -8 3 -5 6 6 6 11 1 17 -2 13
-5z m-174 -28 c7 -17 -50 -28 -57 -12 -3 7 -9 5 -15 -4 -9 -13 -11 -13 -11 2
0 9 6 19 13 21 25 11 65 7 70 -7z m-96 -16 c2 -23 -12 -27 -20 -6 -3 8 -1 17
6 20 7 2 12 5 12 5 1 1 1 -8 2 -19z m-34 -4 c3 -8 -1 -17 -9 -20 -9 -3 -12 -1
-9 4 4 6 -7 10 -24 10 -16 0 -34 -6 -38 -13 -4 -7 -27 -17 -51 -23 -37 -10
-42 -9 -37 3 3 11 1 13 -10 9 -8 -3 -15 -2 -15 2 0 4 37 15 83 24 106 20 104
20 110 4z m-233 -37 c0 -6 -6 -9 -12 -6 -17 6 -50 -11 -44 -22 3 -4 -27 -18
-67 -30 -44 -13 -73 -18 -75 -11 -6 16 -26 12 -45 -10 -9 -11 -22 -20 -29 -19
-10 0 -10 2 -1 5 7 3 10 11 7 18 -6 16 75 41 106 33 11 -3 20 0 21 6 0 8 3 7
6 -1 4 -10 8 -9 18 4 19 27 115 54 115 33z m25 -19 c-3 -5 -16 -10 -28 -9 -20
1 -20 2 3 9 14 4 26 8 28 9 2 1 0 -3 -3 -9z m781 -33 c15 -15 -8 -18 -147 -22
-126 -4 -201 -8 -325 -19 -17 -2 -35 -5 -40 -8 -5 -2 -29 -6 -54 -7 -25 -1
-49 -7 -54 -12 -13 -12 -49 -12 -41 1 3 6 -1 10 -10 10 -10 0 -13 -5 -9 -12 5
-8 0 -9 -14 -6 -15 4 -22 2 -22 -8 0 -8 -9 -14 -20 -14 -10 0 -35 -7 -54 -16
-41 -20 -78 -12 -55 11 20 21 232 83 309 91 36 3 99 10 140 14 90 9 387 7 396
-3z m-1096 -45 c0 -9 -3 -12 -7 -9 -3 4 -17 0 -30 -9 -24 -15 -24 -15 -9 9 18
26 46 32 46 9z m-60 -2 c0 -5 -5 -10 -11 -10 -5 0 -7 5 -4 10 3 6 8 10 11 10
2 0 4 -4 4 -10z m-70 -35 c-7 -8 -24 -15 -39 -15 -22 1 -24 2 -8 11 9 5 22 7
27 4 6 -3 10 -1 10 4 0 6 5 11 11 11 8 0 8 -5 -1 -15z m40 -9 c0 -2 -7 -7 -16
-10 -8 -3 -12 -2 -9 4 6 10 25 14 25 6z m-122 -26 c-7 -11 -22 -20 -33 -20
-18 0 -18 2 5 20 32 25 43 25 28 0z m432 -10 c0 -5 -7 -10 -15 -10 -8 0 -15 5
-15 10 0 6 7 10 15 10 8 0 15 -4 15 -10z"/>
<path d="M5090 8183 c-14 -3 -29 -9 -34 -14 -6 -5 -18 -9 -27 -9 -14 0 -19
-11 -24 -47 -3 -27 -10 -76 -15 -109 -15 -90 -13 -144 4 -144 16 0 83 64 132
126 39 49 74 117 74 144 0 20 -53 61 -75 59 -5 -1 -21 -4 -35 -6z"/>
<path d="M4930 8089 c0 -5 5 -7 10 -4 6 3 10 8 10 11 0 2 -4 4 -10 4 -5 0 -10
-5 -10 -11z"/>
<path d="M5855 8038 c-4 -13 -13 -36 -20 -53 -45 -105 -44 -119 8 -103 17 5
38 10 45 11 25 1 8 167 -18 167 -5 0 -12 -10 -15 -22z"/>
<path d="M6195 8064 c-11 -4 -12 -330 -1 -341 10 -11 135 126 161 177 23 46
24 54 14 90 -10 32 -21 44 -54 60 -37 18 -94 25 -120 14z"/>
<path d="M6178 7433 c6 -2 18 -2 25 0 6 3 1 5 -13 5 -14 0 -19 -2 -12 -5z"/>
<path d="M5855 7420 c-3 -5 -1 -10 4 -10 6 0 11 5 11 10 0 6 -2 10 -4 10 -3 0
-8 -4 -11 -10z"/>
<path d="M5758 7273 c7 -3 16 -2 19 1 4 3 -2 6 -13 5 -11 0 -14 -3 -6 -6z"/>
<path d="M6632 8960 c0 -14 2 -19 5 -12 2 6 2 18 0 25 -3 6 -5 1 -5 -13z"/>
<path d="M4935 8850 c-3 -6 1 -7 9 -4 18 7 21 14 7 14 -6 0 -13 -4 -16 -10z"/>
<path d="M7076 8578 c-21 -11 -44 -17 -51 -14 -9 3 -15 -8 -20 -37 -6 -40 -21
-87 -100 -332 -19 -61 -41 -139 -49 -175 -22 -98 -76 -318 -94 -380 -9 -30
-19 -73 -23 -95 -8 -48 -36 -193 -49 -255 -5 -25 -14 -81 -20 -125 -6 -44 -16
-109 -22 -145 -6 -36 -12 -126 -12 -200 l-1 -134 -45 -14 c-57 -17 -326 -20
-395 -4 -27 6 -77 16 -110 22 -33 6 -91 20 -130 31 -38 10 -95 19 -125 19 -30
0 -71 4 -90 9 -19 5 -66 12 -105 15 -38 2 -128 10 -200 16 -145 13 -345 1
-425 -25 l-45 -15 50 7 c28 5 124 7 215 7 153 -1 203 -6 380 -34 36 -6 90 -15
120 -20 30 -4 114 -22 185 -40 72 -17 150 -35 175 -40 25 -5 61 -14 80 -20 87
-26 194 -42 295 -42 98 -1 116 2 168 25 31 14 57 27 58 29 0 2 5 48 10 103 17
194 27 271 47 370 12 55 28 134 36 175 25 117 47 210 66 275 20 68 87 337 101
405 5 25 16 59 24 76 8 16 17 50 21 75 4 24 15 62 24 84 10 22 21 55 24 73 3
19 12 48 20 65 14 29 61 181 73 234 3 12 -1 29 -9 36 -12 13 -19 12 -52 -5z"/>
<path d="M7163 8463 c-38 -13 -44 -20 -53 -56 -11 -43 -40 -138 -67 -217 -31
-96 -72 -240 -97 -345 -37 -153 -64 -259 -85 -335 -11 -36 -29 -110 -41 -165
-11 -55 -26 -117 -31 -138 -6 -21 -13 -60 -15 -85 -3 -26 -10 -63 -15 -82 -11
-39 -25 -153 -40 -335 -12 -141 -13 -164 -5 -172 13 -13 20 11 27 99 9 96 20
182 38 278 6 30 15 82 21 115 6 33 15 80 19 105 5 25 20 89 35 144 14 54 26
109 26 122 0 12 4 25 9 28 5 4 15 38 21 76 6 38 16 72 21 76 5 3 9 18 9 33 0
33 140 460 189 576 5 11 23 58 40 105 18 47 41 104 52 128 10 23 19 47 19 52
0 13 -26 11 -77 -7z"/>
<path d="M7266 8322 c-24 -12 -30 -12 -37 -1 -4 7 -10 11 -12 9 -9 -10 -57
-130 -57 -143 0 -7 -9 -32 -20 -55 -11 -22 -20 -47 -20 -54 0 -16 -55 -195
-81 -262 -11 -27 -19 -57 -19 -67 0 -9 -9 -38 -20 -64 -11 -26 -20 -55 -20
-64 0 -10 -9 -40 -19 -67 -48 -122 -91 -301 -111 -456 -5 -42 -12 -90 -15
-105 -4 -19 -3 -23 3 -13 5 8 17 50 27 93 9 42 21 80 26 83 5 3 9 15 9 27 0
12 7 42 16 67 9 25 24 74 34 110 10 36 35 110 55 165 20 55 45 127 56 160 11
33 29 78 39 100 16 34 63 146 89 210 23 56 65 153 77 178 8 16 14 34 14 41 0
6 9 29 19 49 10 20 21 43 24 51 8 20 -23 25 -57 8z"/>
<path d="M7256 8119 c-20 -44 -36 -87 -36 -95 0 -7 -8 -28 -18 -46 -10 -18
-28 -58 -40 -90 -12 -31 -30 -76 -40 -100 -28 -61 -50 -120 -84 -223 -16 -49
-35 -103 -42 -120 -22 -52 -48 -134 -67 -213 -10 -42 -28 -111 -39 -152 -12
-41 -27 -104 -35 -140 -7 -36 -21 -92 -30 -125 -9 -33 -20 -80 -25 -105 -5
-25 -12 -56 -15 -70 -5 -20 -4 -22 4 -9 6 9 24 72 41 140 38 156 73 259 94
274 8 7 22 36 30 66 8 30 26 90 40 134 14 44 26 88 26 97 0 10 5 18 10 18 6 0
10 8 10 18 0 9 16 62 36 117 19 55 44 125 54 155 10 30 25 71 33 90 9 19 32
78 52 130 20 52 56 138 80 190 62 135 63 140 27 140 -27 0 -32 -6 -66 -81z"/>
<path d="M7304 8043 c-19 -43 -46 -105 -58 -138 -13 -33 -36 -91 -51 -130 -30
-76 -75 -206 -75 -215 0 -13 40 65 83 165 27 61 77 168 112 239 54 109 62 131
50 142 -7 8 -16 14 -20 14 -3 0 -21 -35 -41 -77z"/>
<path d="M7377 8056 c-8 -17 -21 -44 -28 -61 -8 -16 -16 -32 -19 -35 -8 -7
-60 -126 -60 -135 0 -5 -20 -50 -45 -102 -25 -51 -45 -96 -45 -99 0 -3 -14
-36 -31 -73 -17 -36 -34 -75 -38 -86 -4 -11 -22 -50 -39 -86 -18 -36 -32 -70
-32 -74 0 -4 -12 -33 -26 -63 -14 -29 -29 -75 -34 -100 -5 -26 -21 -87 -35
-137 -27 -98 -31 -112 -69 -290 -14 -66 -26 -129 -25 -140 0 -25 24 41 39 109
11 48 19 75 65 231 10 33 22 78 26 100 16 85 67 240 142 435 44 115 110 252
246 513 28 54 51 103 51 111 0 24 -29 13 -43 -18z"/>
<path d="M6872 6844 c-6 -22 -22 -85 -37 -142 -29 -115 -55 -261 -54 -307 1
-16 9 13 20 65 22 113 41 202 68 325 19 88 22 133 3 59z"/>
<path d="M4990 6720 c-130 -24 -184 -44 -261 -95 -99 -66 -103 -82 -8 -33 82
42 104 51 218 83 63 17 74 18 67 6 -3 -4 -34 -16 -68 -25 -145 -39 -298 -113
-298 -144 0 -10 9 -8 33 8 74 49 193 99 252 105 33 4 99 13 147 22 138 24 325
10 503 -37 44 -12 94 -24 110 -26 17 -3 44 -12 60 -19 28 -12 102 -36 265 -85
225 -67 320 -82 512 -84 167 -1 186 4 173 44 -6 19 -12 21 -48 15 -92 -14
-201 -4 -382 37 -272 61 -371 86 -445 111 -25 8 -65 18 -90 22 -25 3 -67 10
-95 15 -117 21 -224 34 -272 34 -58 -1 -70 11 -23 21 31 7 193 -10 244 -26 16
-5 50 -9 76 -9 26 0 50 -3 54 -7 4 -4 31 -13 59 -19 29 -6 95 -23 147 -38 52
-15 111 -32 130 -37 19 -4 73 -18 120 -29 134 -34 187 -40 315 -40 138 1 189
9 193 32 3 14 -15 16 -159 17 -173 1 -195 5 -534 85 -139 33 -223 51 -280 60
-16 3 -52 9 -78 15 -63 14 -271 31 -422 36 -85 2 -147 -2 -215 -15z"/>
<path d="M4770 6687 c-35 -17 -124 -70 -130 -78 -3 -3 -18 -13 -35 -22 -36
-18 -75 -54 -75 -68 0 -5 7 -12 15 -15 9 -4 39 18 82 63 38 38 89 78 115 90
25 13 49 27 53 33 7 12 7 12 -25 -3z"/>
<path d="M4478 6635 c-3 -14 -1 -28 3 -31 5 -3 9 9 9 25 0 38 -6 40 -12 6z"/>
<path d="M5175 6630 c-168 -10 -185 -24 -40 -31 190 -10 454 -51 605 -92 92
-26 214 -68 224 -78 13 -12 -28 -12 -52 0 -27 13 -180 59 -256 76 -78 18 -114
14 -46 -5 55 -15 214 -68 255 -85 123 -51 259 -91 485 -145 106 -25 321 -39
378 -24 13 4 22 14 22 26 0 16 -5 18 -37 13 -21 -4 -49 -8 -63 -10 -29 -5
-205 10 -270 22 -25 5 -67 16 -95 25 -27 9 -90 26 -140 38 -99 24 -141 47 -65
35 25 -3 56 -11 70 -16 131 -50 407 -94 518 -83 59 5 63 7 58 27 -3 12 -6 30
-6 41 0 15 -5 17 -32 12 -88 -16 -506 24 -560 54 -10 6 -27 10 -38 10 -11 0
-43 9 -72 20 -29 11 -63 20 -76 20 -13 0 -37 8 -55 17 -18 9 -48 20 -67 24
-19 3 -55 14 -80 22 -134 47 -198 61 -330 76 -41 5 -86 11 -100 13 -14 3 -74
2 -135 -2z"/>
<path d="M5480 6486 c213 -73 256 -89 319 -118 24 -11 61 -26 80 -33 20 -7 56
-21 81 -32 54 -23 99 -40 160 -59 25 -8 66 -21 91 -29 26 -8 64 -15 85 -15 22
0 76 -9 122 -20 46 -11 100 -20 120 -20 19 0 62 -5 93 -12 39 -8 73 -9 105 -2
l47 9 19 75 c10 41 18 93 18 115 0 22 7 67 15 100 17 69 20 134 3 75 -5 -19
-13 -61 -19 -93 -5 -33 -12 -64 -15 -69 -4 -6 -10 -36 -13 -67 l-6 -56 -50 -8
c-74 -12 -361 6 -380 24 -5 5 -19 9 -32 9 -12 0 -48 7 -80 16 -32 9 -74 20
-93 24 -57 13 -158 46 -280 91 -139 51 -313 102 -482 143 -119 29 -96 17 92
-48z"/>
<path d="M5510 6530 c8 -5 20 -10 25 -10 6 0 3 5 -5 10 -8 5 -19 10 -25 10 -5
0 -3 -5 5 -10z"/>
<path d="M6733 6483 c-7 -3 -13 -18 -13 -34 0 -22 5 -29 19 -29 18 0 31 18 31
45 0 15 -19 24 -37 18z"/>
</g>
<g transform="translate(0.000000,1280.000000) scale(0.100000,-0.100000)"
fill="#ece6d8" stroke="none">
<path d="M4451 9948 c-31 -50 -20 -288 14 -288 13 0 40 209 34 270 -5 42 -28
50 -48 18z"/>
<path d="M3847 9823 c-20 -19 -4 -65 41 -120 52 -62 140 -139 148 -130 6 6
-99 174 -141 225 -27 32 -36 37 -48 25z"/>
<path d="M5050 9714 c-129 -106 -230 -231 -157 -193 34 18 157 118 205 167 78
80 41 100 -48 26z"/>
<path d="M3690 9501 c0 -11 17 -34 38 -51 44 -37 179 -106 189 -97 18 19 -174
167 -217 167 -5 0 -10 -9 -10 -19z"/>
<path d="M5093 9334 c-40 -19 -73 -39 -73 -44 0 -25 178 10 205 40 16 17 15
19 -4 29 -30 17 -50 13 -128 -25z"/>
<path d="M3075 9190 c-123 -7 -251 -22 -445 -55 -47 -7 -138 -19 -202 -26 -65
-7 -118 -16 -118 -21 0 -11 277 -10 298 1 9 4 58 11 107 14 l90 6 -92 -27
c-140 -41 -142 -58 -3 -22 41 11 86 19 100 19 18 -1 14 -4 -15 -11 -145 -34
-213 -54 -310 -89 -170 -62 -269 -101 -280 -111 -18 -16 -42 -8 -53 18 -16 35
-35 20 -28 -21 6 -32 6 -33 -94 -90 -55 -31 -102 -61 -105 -65 -3 -5 8 -46 24
-92 45 -132 62 -181 71 -213 4 -16 20 -68 34 -115 14 -47 26 -95 26 -107 0
-13 5 -23 10 -23 6 0 10 -8 10 -17 0 -10 9 -47 19 -83 22 -74 49 -184 61 -250
5 -25 14 -67 20 -95 31 -143 47 -234 60 -355 6 -52 16 -131 21 -175 5 -44 12
-195 15 -336 l6 -256 -32 -17 c-18 -9 -37 -16 -41 -16 -5 0 -6 44 -2 98 18
246 4 448 -47 702 -5 25 -18 95 -30 155 -39 203 -36 190 -60 250 -4 11 -17 52
-29 90 -12 39 -26 79 -31 90 -5 11 -11 37 -15 58 -4 27 -11 37 -22 35 -11 -2
-25 20 -48 75 -18 42 -29 77 -24 77 20 0 7 41 -22 75 -35 40 -51 40 -25 0 10
-15 15 -34 11 -43 -3 -8 10 -47 29 -86 19 -39 39 -91 45 -116 5 -25 25 -90 44
-145 64 -186 121 -447 150 -695 6 -52 11 -231 11 -397 0 -213 3 -303 11 -303
6 0 28 9 50 20 22 11 43 20 47 20 13 0 9 -61 -7 -123 -8 -32 -15 -74 -15 -93
l0 -36 31 26 c17 14 35 26 41 26 6 0 20 7 30 17 28 25 33 8 16 -46 -18 -58
-11 -79 22 -61 12 6 25 9 28 5 4 -4 9 -39 12 -78 6 -91 16 -94 130 -32 235
125 333 169 506 229 104 36 209 70 234 76 25 5 74 17 110 26 265 65 330 75
510 75 203 0 210 0 210 -8 0 -3 -20 -27 -43 -52 l-44 -47 -16 28 c-18 31 -53
37 -61 11 -17 -61 -27 -175 -22 -237 4 -39 2 -84 -3 -101 -15 -47 -92 -211
-148 -315 -28 -52 -59 -121 -69 -152 -12 -41 -23 -58 -35 -58 -19 0 -37 -19
-59 -64 -18 -38 -102 -155 -111 -156 -4 0 -10 25 -14 56 -5 42 -10 54 -21 50
-17 -7 -18 -2 -2 23 9 15 9 26 1 44 -9 20 -9 29 2 44 31 40 7 73 -53 73 -25 0
-34 9 -66 62 l-36 62 25 26 c30 32 32 47 5 55 -15 5 -20 15 -20 40 0 33 0 34
-32 23 -18 -5 -41 -12 -50 -15 -14 -4 -18 1 -18 23 0 16 -5 36 -11 44 -9 13
-12 13 -22 -3 -27 -41 -50 -62 -54 -49 -7 17 -17 15 -45 -10 -28 -26 -138 -82
-138 -70 0 4 9 13 20 20 11 7 20 17 20 23 0 18 -43 -2 -89 -43 -25 -21 -50
-37 -57 -34 -10 4 -76 -64 -97 -100 -11 -19 -27 -18 -27 2 0 8 -4 12 -10 9
-13 -8 -13 -51 1 -90 10 -27 8 -35 -15 -70 -27 -39 -31 -80 -9 -80 21 0 28
-17 28 -72 0 -61 18 -82 30 -36 l7 28 14 -27 c8 -16 19 -28 24 -28 19 0 10
-18 -25 -53 -22 -22 -35 -45 -35 -61 0 -18 -8 -30 -31 -41 -16 -9 -33 -25 -37
-36 -6 -15 -42 47 -157 273 l-149 293 -4 100 c-5 139 -48 265 -89 265 -9 0
-25 7 -35 17 -16 14 -22 14 -46 3 -15 -7 -37 -12 -50 -11 -13 1 -25 -4 -28
-14 -6 -14 -8 -14 -23 -1 -16 14 -20 14 -40 -5 -17 -16 -22 -30 -20 -63 2 -25
-3 -51 -12 -64 -8 -11 -16 -42 -18 -67 -2 -39 2 -49 26 -68 15 -12 50 -44 78
-72 46 -46 52 -58 82 -160 43 -148 63 -228 63 -248 0 -24 -27 -21 -35 3 -8 24
-83 90 -103 90 -10 0 -12 7 -9 23 9 32 -8 96 -30 113 -11 9 -32 13 -54 10 -30
-3 -37 0 -52 25 -13 24 -23 29 -56 29 -50 0 -89 -15 -121 -46 -23 -21 -30 -22
-55 -13 -65 24 -182 -39 -220 -118 -16 -35 -25 -42 -48 -43 -45 0 -84 -26
-103 -70 -10 -22 -26 -42 -36 -46 -45 -14 -63 -78 -47 -162 6 -30 9 -56 6 -58
-3 -3 -33 -9 -67 -14 -34 -5 -68 -14 -77 -21 -23 -20 -36 -60 -23 -73 8 -8 12
-4 17 12 3 13 18 29 34 38 29 15 34 10 23 -21 -6 -13 -9 -14 -16 -3 -7 10 -11
9 -23 -6 -19 -25 -19 -85 0 -110 24 -31 18 -36 -37 -37 -69 0 -116 -18 -141
-51 -27 -36 -18 -65 38 -121 l44 -46 -44 -16 c-76 -30 -102 -81 -77 -153 19
-57 102 -111 102 -67 0 8 9 15 19 15 28 0 35 -17 11 -25 -36 -11 -100 -102
-100 -141 0 -71 71 -113 153 -91 25 7 27 5 26 -20 -5 -95 8 -114 92 -125 35
-5 74 -9 87 -9 27 1 28 -10 2 -34 -11 -10 -34 -43 -51 -72 -17 -30 -41 -63
-53 -75 l-21 -20 30 4 c26 3 30 -1 35 -27 5 -28 7 -26 27 30 39 105 131 224
177 229 15 2 37 13 50 25 12 11 27 21 34 21 6 0 20 10 32 22 19 21 20 21 20 2
1 -18 1 -18 11 -1 6 10 14 40 18 65 4 29 12 46 19 44 7 -1 22 7 34 18 12 11
27 20 34 20 6 0 17 6 24 14 6 8 17 13 24 10 22 -9 49 63 44 117 -5 45 -3 49
23 59 16 7 32 24 38 41 9 27 26 35 67 30 10 -1 21 18 38 73 4 11 12 16 21 13
16 -7 55 49 55 80 0 15 11 22 49 32 88 22 237 -19 283 -80 13 -17 51 -59 84
-94 34 -34 72 -81 85 -104 12 -23 26 -41 31 -41 34 0 -37 138 -108 211 l-38
39 18 37 c10 21 39 70 64 108 25 39 58 94 73 123 l26 53 5 -44 c6 -52 66 -155
112 -194 17 -14 38 -38 47 -53 17 -27 79 -50 184 -68 36 -6 40 -10 40 -35 0
-26 -6 -31 -85 -60 -53 -20 -115 -54 -165 -91 -98 -72 -301 -278 -360 -367
-48 -71 -88 -156 -82 -173 2 -6 -8 -33 -24 -61 -33 -62 -44 -95 -30 -95 6 0
11 6 11 13 0 6 28 59 63 116 34 57 77 128 95 159 34 57 49 76 166 206 114 125
286 226 466 272 87 22 203 44 233 44 28 0 37 -14 15 -23 -10 -4 -9 -8 2 -16
11 -8 18 -7 27 5 6 9 33 26 60 39 26 12 93 52 148 89 129 86 143 86 196 4 22
-34 42 -74 45 -88 9 -42 37 -104 57 -127 17 -20 18 -26 7 -53 -14 -33 -64 -80
-85 -80 -14 0 -57 -50 -163 -187 -29 -37 -79 -97 -112 -132 -61 -65 -71 -87
-26 -57 35 22 49 21 36 -3 -18 -34 -11 -36 20 -6 17 16 30 39 30 51 0 24 42
62 48 44 4 -10 -11 -140 -25 -220 -4 -25 -2 -32 5 -25 6 6 31 86 56 179 24 92
51 175 59 184 8 10 22 31 30 48 9 17 55 70 103 119 87 87 87 88 72 113 -16 26
-15 27 78 134 52 59 116 129 142 155 26 27 58 71 72 98 14 28 35 64 46 80 25
35 100 174 156 290 21 44 42 87 47 95 4 8 32 32 62 52 30 20 80 60 113 90 46
42 58 60 60 85 3 66 21 58 73 -34 28 -48 53 -98 57 -110 4 -12 37 -71 73 -130
36 -59 88 -150 116 -202 49 -91 51 -97 63 -220 10 -105 10 -127 -2 -134 -10
-6 -11 -14 -4 -33 10 -27 -1 -99 -22 -138 -11 -19 -13 -16 -29 37 -10 34 -15
73 -12 96 8 62 -14 164 -50 228 -52 91 -69 117 -94 138 -13 11 -29 31 -36 44
-7 14 -26 33 -43 43 -28 16 -42 17 -115 9 -51 -6 -85 -6 -87 0 -12 31 -150
-32 -216 -98 -46 -46 -105 -152 -128 -228 -31 -103 -59 -152 -132 -232 -55
-60 -71 -84 -92 -149 -35 -104 -35 -176 1 -243 l27 -50 -21 -43 c-25 -53 -26
-63 -6 -118 14 -38 13 -47 -2 -91 -17 -46 -20 -49 -66 -59 -26 -5 -87 -10
-135 -10 -48 -1 -114 -7 -147 -15 -33 -8 -105 -15 -160 -15 -55 0 -115 -4
-132 -9 -20 -6 -150 -6 -340 1 -170 5 -333 10 -363 10 -165 -2 -368 -10 -377
-15 -6 -4 -55 -9 -109 -11 -55 -3 -128 -12 -164 -20 -36 -9 -77 -16 -92 -16
-21 0 -28 -5 -28 -19 0 -11 6 -22 13 -24 6 -3 -19 -5 -58 -5 -84 1 -115 -7
-115 -31 0 -16 12 -19 90 -23 49 -3 109 -1 132 4 24 5 97 13 163 19 66 5 145
16 176 24 77 20 148 20 164 -1 11 -15 26 -15 201 0 104 9 224 16 267 16 43 0
108 5 145 11 42 6 82 7 107 2 l40 -9 -62 -8 c-46 -5 -65 -12 -73 -26 -6 -10
-7 -21 -3 -23 16 -8 201 12 253 27 61 18 89 21 425 41 138 8 283 17 323 20 39
2 72 3 72 0 0 -10 -86 -26 -178 -34 -149 -13 -257 -49 -229 -77 2 -3 40 4 83
16 43 11 108 20 145 20 37 0 96 6 131 14 35 8 101 17 148 21 47 3 126 13 175
21 50 7 106 14 127 14 32 0 36 -2 30 -22 -5 -19 -2 -21 29 -14 57 11 282 26
319 21 19 -3 134 -7 255 -10 121 -3 301 -10 400 -16 99 -6 248 -15 330 -19
307 -19 451 -22 435 -10 -12 9 -9 10 15 6 77 -13 142 -17 164 -9 l24 9 -29 11
c-16 7 -65 16 -108 22 -79 11 -87 10 -98 -21 -2 -4 -21 -3 -43 2 -22 5 -69 10
-105 11 -36 1 -78 5 -95 10 -23 6 -17 7 26 5 30 -2 76 0 102 5 25 4 162 9 304
10 202 1 273 -3 328 -15 39 -9 103 -16 144 -16 69 0 129 -12 310 -62 62 -17
80 -19 112 -9 22 7 39 16 39 21 0 18 -227 68 -410 91 -178 22 -240 33 -240 42
0 12 306 2 365 -13 22 -5 79 -10 127 -10 47 0 122 -7 165 -15 43 -9 166 -20
273 -26 107 -5 216 -12 243 -15 48 -6 60 3 33 25 -8 6 -39 16 -69 21 -30 5
-72 13 -93 19 -22 5 -106 13 -189 16 -82 4 -168 11 -190 16 -22 5 -112 13
-200 18 -88 6 -209 17 -270 26 -62 10 -132 14 -161 11 -28 -3 -89 -1 -135 5
-46 6 -243 12 -436 13 -194 1 -356 6 -360 9 -4 4 4 29 17 55 12 26 24 57 25
69 4 26 75 135 124 186 32 34 74 66 162 120 26 16 140 57 157 57 5 0 20 -24
32 -52 12 -29 33 -65 47 -79 17 -18 21 -28 12 -31 -9 -3 -7 -16 10 -51 13 -26
27 -47 32 -47 12 0 11 7 -3 33 -6 13 11 2 41 -26 29 -26 59 -47 67 -47 8 0 14
-4 14 -8 0 -11 55 -42 73 -42 8 0 29 13 46 29 31 29 41 30 41 1 0 -22 94 -38
116 -19 7 6 20 9 28 6 18 -7 86 41 109 77 10 15 22 24 27 21 5 -3 11 -1 15 5
12 19 22 10 55 -52 21 -39 27 -58 17 -49 -26 20 -34 4 -14 -27 9 -15 31 -56
49 -92 33 -65 52 -64 29 2 -6 17 -11 43 -11 58 0 15 -16 58 -34 96 -32 63 -34
70 -19 86 9 10 24 18 33 18 26 0 40 21 40 62 0 55 -42 127 -139 238 -45 52
-38 30 9 -26 45 -54 76 -113 86 -160 7 -37 -22 -79 -49 -69 -18 8 -23 31 -7
37 7 2 5 24 -5 62 -24 92 -64 155 -117 182 -16 8 -28 19 -28 25 0 14 27 22 48
14 9 -5 24 -9 32 -11 8 -2 25 -14 37 -28 12 -15 25 -26 29 -26 9 0 -6 73 -18
85 -7 7 -8 3 -3 -12 9 -32 -8 -29 -50 8 -44 39 -115 177 -96 188 10 6 7 26
-14 87 -41 119 -116 225 -204 286 -18 13 -24 29 -28 76 -5 56 10 154 27 177 8
10 64 180 82 245 27 102 28 112 17 150 -7 21 -9 54 -5 75 6 30 10 34 22 25 18
-16 18 -11 -1 28 -15 28 -15 34 0 62 8 16 17 30 19 30 2 0 1 -22 -2 -49 -4
-41 -1 -52 18 -71 16 -16 29 -20 47 -15 l26 6 -27 -31 c-14 -17 -26 -35 -26
-39 0 -21 15 -17 37 10 14 16 39 37 55 45 29 15 29 16 12 35 -14 16 -15 19 -2
19 38 0 78 -14 78 -27 0 -7 -19 -39 -42 -70 -24 -31 -50 -65 -59 -77 -15 -21
-36 -156 -60 -408 l-12 -116 82 -121 c51 -75 76 -121 67 -121 -8 0 -26 -15
-40 -32 -15 -18 -30 -38 -35 -43 -12 -17 -19 -65 -10 -71 5 -3 9 -1 9 5 0 19
61 100 92 122 30 22 31 22 44 4 19 -25 18 -32 -5 -38 -24 -6 -61 -63 -61 -93
0 -12 -6 -27 -14 -33 -18 -15 -30 -61 -19 -72 5 -5 31 -1 58 7 62 19 136 13
202 -16 59 -26 159 -122 223 -215 26 -38 79 -102 116 -141 38 -39 105 -117
149 -174 117 -150 149 -189 158 -189 14 -2 7 21 -18 53 -14 18 -25 39 -25 46
0 7 -12 27 -27 46 -83 100 -87 114 -21 69 20 -14 42 -25 47 -25 6 0 11 -6 11
-14 0 -7 19 -29 43 -49 24 -19 65 -68 92 -109 52 -78 73 -103 80 -96 4 3 -26
127 -50 203 -4 16 -3 15 6 -2 18 -34 32 -28 24 9 -6 32 -5 32 11 13 21 -26 53
-95 54 -116 0 -9 7 -22 15 -29 46 -38 -23 173 -88 269 -25 36 -55 86 -67 110
-21 43 -21 45 -4 82 30 67 11 158 -48 224 -17 20 -16 22 31 62 67 58 92 125
99 264 4 95 1 117 -22 200 -15 51 -45 125 -66 164 -38 69 -181 235 -202 235
-6 0 -27 12 -45 26 -29 22 -41 25 -73 20 -29 -4 -47 -1 -73 14 -47 28 -178 32
-225 7 -40 -22 -72 -53 -72 -70 0 -18 50 -77 65 -77 13 0 25 -64 25 -131 0
-43 15 -60 25 -28 13 39 25 -1 25 -84 0 -120 -36 -176 -122 -191 -58 -10 -61
-30 -4 -24 44 5 46 5 26 -9 -47 -33 -187 -9 -221 38 -23 33 -24 42 -1 91 14
32 21 37 40 33 12 -3 32 0 43 6 20 10 20 12 -12 31 -48 28 -61 46 -48 70 7 13
7 29 0 50 -6 17 -11 32 -11 34 0 1 25 8 56 15 38 9 58 19 66 33 6 12 24 36 41
54 17 17 26 32 21 32 -13 0 -58 -48 -73 -77 -8 -15 -24 -23 -60 -28 -61 -8
-79 -25 -63 -60 6 -14 9 -39 5 -55 -4 -25 0 -37 21 -59 l26 -28 -30 5 c-27 4
-30 2 -30 -23 0 -15 -8 -40 -17 -56 -17 -29 -17 -31 3 -67 18 -30 32 -40 78
-55 55 -18 57 -20 54 -50 -2 -25 -8 -32 -25 -33 -12 -1 -28 -4 -36 -7 -10 -4
-22 4 -31 19 -9 13 -25 24 -35 24 -35 0 -188 231 -177 267 3 10 14 114 25 230
l19 213 45 46 c25 25 53 61 61 79 16 34 21 77 10 88 -4 4 -7 33 -8 64 -1 55
-2 58 -26 59 -14 0 -34 5 -44 11 -13 7 -28 8 -44 2 -13 -5 -28 -7 -33 -3 -5 3
-30 -2 -55 -12 -50 -19 -74 -53 -75 -107 -3 -107 -2 -176 1 -202 1 -17 -17
-85 -43 -160 -56 -161 -87 -274 -94 -342 l-6 -53 -51 6 c-130 13 -221 11 -262
-7 -41 -17 -86 -65 -98 -105 -3 -11 -20 -34 -37 -50 -25 -23 -33 -26 -37 -14
-7 21 -94 100 -109 100 -16 0 -16 10 -3 44 5 14 16 26 24 26 7 0 16 7 20 15 3
10 19 15 46 15 31 0 47 6 68 27 16 17 36 26 49 25 30 -4 63 15 63 36 0 9 15
24 32 32 21 10 35 25 39 43 4 16 15 35 25 41 13 10 16 22 11 52 -4 27 -1 45 8
58 17 23 20 72 5 81 -7 4 -8 24 -4 52 6 44 5 46 -40 88 -31 29 -46 52 -46 68
0 29 -51 77 -81 77 -16 0 -19 5 -14 19 9 28 -30 51 -87 51 -40 0 -48 3 -48 19
0 44 -107 71 -131 32 -12 -18 -12 -18 -30 0 -27 27 -103 26 -126 -1 -10 -11
-25 -20 -35 -20 -58 0 -80 -101 -31 -140 l26 -21 -39 -42 c-21 -23 -40 -44
-42 -46 -1 -2 -27 -8 -58 -12 -66 -9 -84 -21 -68 -47 42 -67 41 -62 16 -80
-16 -12 -21 -23 -16 -36 4 -9 2 -27 -4 -39 -6 -12 -13 -38 -17 -57 -3 -19 -8
-49 -11 -67 -4 -22 -10 -30 -20 -26 -8 3 -14 -1 -14 -8 0 -21 -209 201 -232
246 -40 80 -92 161 -135 213 -187 222 -286 365 -318 458 -9 26 -23 94 -31 152
-8 57 -19 112 -25 123 -5 11 -8 23 -5 28 10 16 228 20 326 5 154 -22 218 -42
820 -254 254 -90 414 -139 460 -140 19 0 62 -7 95 -15 41 -10 85 -13 140 -9
75 6 192 27 201 37 3 2 9 33 15 68 14 87 37 201 56 279 8 36 19 90 23 120 9
63 32 165 59 260 48 166 72 247 82 275 6 17 17 50 25 75 43 146 89 259 191
470 88 183 203 436 203 448 0 5 -23 12 -50 15 -28 3 -57 13 -65 21 -8 8 -20
16 -27 18 -9 3 -8 15 5 48 19 50 16 61 -12 36 -12 -11 -27 -15 -40 -11 -19 6
-19 7 4 57 26 55 21 78 -16 78 -11 0 -19 5 -19 10 0 6 -16 -2 -35 -17 -41 -33
-32 -50 19 -32 19 7 39 10 42 6 6 -6 -16 -68 -46 -128 -20 -40 -70 -172 -70
-185 0 -8 -4 -14 -10 -14 -5 0 -10 -5 -10 -11 0 -6 -14 -43 -31 -82 -66 -156
-82 -193 -94 -222 -10 -26 -42 -116 -89 -252 -6 -18 -14 -33 -18 -33 -5 0 -8
-15 -8 -32 -1 -18 -9 -58 -20 -88 -11 -30 -20 -64 -20 -75 -1 -11 -9 -36 -20
-55 l-19 -35 -1 43 c0 23 4 42 8 42 5 0 14 35 20 78 11 69 40 179 63 240 22
56 27 71 47 137 11 39 33 113 50 165 16 52 40 129 52 170 13 41 31 98 41 125
9 28 23 70 30 95 7 25 16 50 20 55 4 6 15 39 24 74 9 35 27 85 40 110 41 80
37 92 -25 61 -19 -9 -48 -20 -64 -24 -27 -7 -28 -6 -21 21 4 15 11 44 15 63 3
19 12 46 19 58 15 29 6 41 -17 24 -33 -23 -112 -62 -126 -62 -13 0 -13 5 -1
41 8 23 15 62 15 86 0 41 -2 44 -22 37 -13 -3 -35 -12 -49 -20 -30 -15 -108
-34 -409 -100 -63 -13 -160 -27 -215 -30 -55 -4 -111 -7 -125 -9 -14 -1 -35
-3 -47 -4 -13 0 -23 -7 -23 -15 0 -11 23 -14 108 -15 209 -3 529 64 695 145
31 15 60 25 64 21 3 -4 -1 -31 -10 -61 -9 -29 -17 -62 -17 -73 0 -29 -37 -168
-54 -206 -9 -17 -22 -59 -30 -92 -8 -33 -24 -85 -35 -115 -28 -73 -75 -255
-101 -385 -5 -27 -14 -66 -19 -85 -5 -19 -17 -66 -27 -105 -9 -38 -28 -113
-41 -165 -14 -52 -29 -129 -33 -170 -5 -41 -14 -109 -19 -150 -6 -41 -15 -122
-21 -180 -5 -58 -12 -128 -16 -156 l-6 -51 -91 -7 c-83 -6 -405 7 -467 19 -14
3 -59 9 -100 15 -41 5 -102 14 -135 20 -222 37 -665 45 -766 15 -25 -8 -79
-20 -120 -26 -77 -13 -128 -36 -264 -120 -45 -27 -92 -49 -107 -49 -27 0 -28
2 -28 50 0 28 5 50 10 50 6 0 10 18 10 41 0 24 -4 38 -10 34 -6 -4 -10 12 -10
42 0 35 3 44 10 33 9 -13 10 -13 11 0 1 8 0 20 -1 25 -2 6 -2 18 -2 28 0 9 -4
17 -10 17 -7 0 -6 5 1 14 8 10 9 16 1 21 -5 3 -10 23 -9 43 1 33 2 34 9 12 5
-16 8 16 8 85 -1 80 -3 98 -8 65 -4 -26 -8 47 -8 170 -1 142 2 210 8 200 8
-12 10 -10 10 8 0 13 -4 20 -10 17 -7 -4 -10 65 -9 202 1 120 4 197 9 183 7
-22 8 -21 9 12 1 20 -3 40 -9 43 -5 3 -10 25 -10 47 0 23 3 38 7 34 4 -4 6
-22 5 -41 -2 -26 1 -35 13 -35 10 0 15 10 15 30 0 17 -4 30 -10 30 -6 0 -10
38 -11 93 -1 61 -4 84 -9 67 l-8 -25 -1 28 c-1 15 4 27 9 27 6 0 10 16 10 35
0 19 -5 35 -11 35 -11 0 -8 125 4 136 4 4 1 14 -6 22 -9 13 -9 14 1 8 7 -4 12
-2 12 5 0 16 87 96 188 174 7 6 18 15 25 20 17 15 101 77 123 92 11 7 36 24
57 38 21 14 41 25 46 25 4 0 36 14 70 30 83 40 129 57 226 82 135 34 196 39
615 47 397 7 407 8 504 34 54 15 125 41 158 57 32 17 62 30 66 30 7 0 -3 -253
-12 -302 -3 -15 -1 -30 4 -33 6 -3 10 -5 11 -3 0 2 4 50 9 108 5 58 12 142 16
188 4 45 4 82 1 82 -4 0 -45 -18 -91 -40 -149 -71 -230 -82 -608 -86 -180 -1
-360 -7 -400 -13 -267 -39 -314 -50 -455 -105 -178 -69 -404 -220 -524 -350
-28 -31 -55 -56 -59 -56 -5 0 -30 33 -56 73 -85 129 -259 292 -404 381 -110
67 -275 137 -415 177 -60 17 -391 62 -420 57 -5 -1 -68 -5 -140 -8z m292 -45
c170 -18 246 -31 343 -57 76 -20 273 -101 300 -123 8 -7 29 -20 45 -28 17 -9
44 -27 60 -41 18 -16 -3 -7 -55 22 -47 27 -98 53 -115 60 -16 6 -66 25 -110
42 -44 17 -100 35 -125 39 -25 5 -99 19 -165 32 -110 21 -146 23 -430 23 -315
0 -332 5 -115 30 157 18 206 18 367 1z m-500 -61 c-3 -3 -12 -4 -19 -1 -8 3
-5 6 6 6 11 1 17 -2 13 -5z m773 -28 c225 -56 309 -94 530 -234 84 -54 192
-180 273 -319 l36 -63 0 -910 c0 -547 -3 -910 -9 -910 -5 0 -15 8 -22 18 -7
10 -35 32 -63 50 -27 17 -56 37 -64 43 -49 43 -221 123 -331 154 -73 21 -298
46 -410 46 -160 0 -394 -25 -505 -54 -33 -9 -82 -21 -110 -27 -27 -7 -93 -25
-145 -42 -52 -16 -111 -34 -130 -40 -19 -5 -71 -27 -115 -48 -44 -20 -91 -41
-105 -45 -14 -4 -46 -18 -72 -31 -26 -13 -50 -24 -53 -24 -3 0 -5 73 -5 163 0
258 -16 393 -120 997 -5 25 -18 79 -30 120 -27 94 -40 146 -47 188 -3 17 -9
32 -14 32 -5 0 -9 8 -9 17 0 9 -12 55 -26 102 -108 357 -125 413 -137 441 -5
11 19 28 96 67 134 67 255 124 286 133 15 5 63 24 109 44 138 58 481 136 606
137 39 0 89 4 111 9 66 15 400 5 475 -14z m565 -235 c-3 -3 -18 8 -33 23 l-27
29 32 -23 c18 -13 30 -26 28 -29z m2939 -238 c-3 -16 -17 -59 -29 -98 -13 -38
-26 -86 -30 -105 -4 -19 -16 -52 -26 -72 -11 -21 -19 -46 -19 -58 0 -11 -9
-39 -19 -63 -11 -23 -22 -58 -25 -77 -3 -19 -17 -59 -31 -88 -14 -30 -25 -67
-25 -82 0 -16 -16 -88 -36 -162 -20 -73 -40 -153 -43 -178 -4 -25 -13 -55 -20
-68 -7 -13 -16 -46 -21 -75 -5 -29 -18 -95 -30 -147 -11 -52 -27 -133 -36
-180 -8 -47 -19 -98 -24 -115 -8 -30 -26 -174 -38 -319 -7 -75 -9 -80 -37 -96
-55 -29 -119 -42 -205 -41 -85 1 -117 6 -240 37 -36 9 -83 20 -105 24 -22 5
-78 18 -125 30 -115 29 -153 37 -420 85 -47 8 -177 18 -290 22 -142 5 -194 9
-170 15 54 13 384 12 408 -1 12 -6 54 -11 94 -11 40 0 91 -5 114 -10 22 -5 72
-12 110 -15 38 -3 115 -16 172 -30 57 -14 118 -25 137 -25 19 0 37 -4 40 -10
3 -5 36 -10 73 -11 37 -1 77 -4 90 -7 28 -8 212 5 265 19 l37 10 0 120 c0 128
20 325 46 449 8 41 20 100 25 130 6 30 14 69 20 86 5 17 9 42 9 56 0 13 8 51
19 84 10 32 26 95 36 139 10 44 28 118 41 165 12 47 25 101 29 120 7 38 61
218 102 340 14 41 30 101 36 133 8 48 13 57 31 57 11 0 39 12 61 25 51 32 57
31 49 -2z m103 -100 c-11 -23 -47 -103 -47 -108 0 -2 -13 -33 -30 -67 -16 -34
-30 -68 -30 -75 0 -7 -9 -32 -19 -56 -11 -23 -25 -60 -31 -82 -7 -22 -16 -44
-21 -49 -5 -6 -9 -18 -9 -28 0 -10 -4 -18 -10 -18 -5 0 -10 -10 -10 -22 0 -22
-73 -257 -91 -290 -5 -10 -9 -31 -9 -48 0 -17 -9 -48 -20 -69 -10 -21 -17 -41
-14 -43 5 -6 -40 -202 -63 -273 -9 -27 -20 -72 -25 -100 -5 -27 -13 -72 -18
-100 -5 -27 -12 -72 -15 -100 -3 -27 -10 -66 -15 -85 -5 -19 -14 -74 -21 -122
-15 -104 -34 -119 -26 -20 16 185 26 261 41 305 9 26 14 52 11 57 -3 5 3 44
14 87 10 43 22 101 26 128 4 28 10 55 14 60 4 6 13 42 21 80 7 39 16 77 20 85
16 33 30 88 30 118 0 17 4 33 9 36 5 4 15 39 22 79 7 39 15 74 19 77 3 3 12
37 19 75 8 39 16 75 20 80 3 6 16 46 27 90 12 44 27 94 33 110 5 17 22 71 37
120 38 132 37 129 96 153 58 23 71 26 65 15z m-2720 -205 c-3 -7 -5 -2 -5 12
0 14 2 19 5 13 2 -7 2 -19 0 -25z m2807 -121 c-8 -22 -30 -72 -49 -111 -19
-40 -35 -76 -35 -80 0 -4 -11 -32 -25 -62 -14 -30 -25 -61 -25 -69 0 -7 -4
-16 -9 -19 -5 -3 -12 -18 -16 -33 -3 -15 -15 -45 -25 -68 -23 -50 -184 -533
-199 -597 -6 -26 -22 -58 -35 -71 -14 -14 -28 -42 -32 -63 -3 -22 -10 -46 -15
-54 -14 -23 -3 45 20 130 93 339 105 378 186 595 35 95 44 118 80 199 8 19 15
39 15 45 0 6 11 34 25 63 13 29 41 94 62 145 34 84 39 91 64 91 l27 -1 -14
-40z m-2807 -19 c-3 -8 -6 -5 -6 6 -1 11 2 17 5 13 3 -3 4 -12 1 -19z m2840
-29 c8 -8 -7 -46 -52 -137 -35 -70 -87 -181 -116 -247 -28 -66 -56 -124 -61
-130 -9 -9 5 28 70 195 14 36 35 92 46 125 27 75 87 205 96 205 3 0 11 -5 17
-11z m61 -26 c-16 -35 -102 -199 -127 -243 -17 -30 -47 -90 -68 -132 -20 -43
-38 -76 -40 -74 -5 4 65 166 126 291 21 44 47 99 56 123 13 29 24 42 37 42 11
0 18 -3 16 -7z m-277 -554 c-17 -35 -30 -60 -31 -55 0 12 52 127 57 123 2 -2
-10 -33 -26 -68z m-56 -145 c-38 -84 -77 -212 -135 -434 -12 -47 -33 -119 -45
-160 -13 -41 -26 -93 -29 -115 -4 -22 -11 -47 -17 -55 -13 -21 -4 35 32 190
43 185 50 211 65 255 8 23 14 53 14 67 0 15 5 30 10 33 6 3 10 13 10 21 0 8 9
33 20 57 10 23 28 62 38 87 47 113 56 132 59 123 2 -6 -8 -37 -22 -69z m-3343
-499 c54 -7 101 -16 105 -18 5 -3 44 -13 88 -22 43 -9 93 -22 110 -30 167 -76
217 -102 271 -140 35 -25 66 -50 70 -57 8 -13 -7 -5 -51 28 -83 62 -271 141
-435 184 -104 27 -493 28 -555 1 -11 -5 -54 -14 -95 -21 -74 -12 -178 -42
-212 -60 -10 -6 -27 -10 -38 -10 -11 0 -42 -9 -68 -21 -26 -12 -58 -26 -72
-31 -14 -6 -33 -14 -42 -19 -10 -5 -24 -9 -32 -9 -21 0 -165 -58 -176 -71 -9
-10 -220 -113 -223 -108 -2 2 -2 25 1 50 4 46 4 46 71 78 36 17 72 31 79 31 6
0 12 5 12 10 0 6 10 10 23 10 24 0 92 22 103 33 4 4 17 7 29 7 11 0 25 4 30 8
13 12 104 45 195 72 41 12 89 26 105 31 47 13 193 41 261 49 34 4 67 10 73 14
10 6 148 20 251 24 14 1 69 -5 122 -13z m93 -65 c59 -8 137 -27 222 -56 73
-24 236 -111 278 -149 45 -40 56 -41 -93 16 -126 47 -464 93 -627 84 -55 -3
-129 -7 -165 -9 -155 -7 -350 -44 -511 -98 -48 -15 -93 -28 -101 -28 -13 0
-103 -34 -173 -65 -16 -8 -65 -25 -108 -39 -43 -14 -114 -46 -158 -71 -45 -26
-82 -45 -84 -43 -2 2 5 37 15 78 11 41 20 85 20 98 0 12 4 22 9 22 6 0 7 -24
4 -56 -6 -56 -6 -56 18 -49 13 4 61 24 106 46 45 21 86 39 92 39 5 0 11 4 13
8 2 4 26 15 53 24 98 32 151 51 210 78 33 14 78 31 100 37 67 19 138 41 180
57 22 8 57 15 78 16 20 0 37 4 37 8 0 8 50 17 217 42 39 5 101 10 137 10 43 0
66 4 66 11 0 8 15 10 53 4 28 -4 79 -11 112 -15z m2986 -23 c-10 -9 -11 -8 -5
6 3 10 9 15 12 12 3 -3 0 -11 -7 -18z m-1784 -43 c-3 -3 -12 -4 -19 -1 -8 3
-5 6 6 6 11 1 17 -2 13 -5z m313 -34 c41 -4 62 -8 45 -10 -16 -2 -34 -4 -40
-5 -5 -2 -23 -3 -39 -4 -23 -1 -27 -5 -23 -21 5 -19 0 -20 -91 -20 -54 0 -128
-6 -167 -14 -38 -8 -99 -17 -135 -20 l-65 -5 84 28 c47 15 87 33 89 40 3 10
-2 11 -19 6 -13 -5 -37 -12 -54 -16 -96 -25 -140 -40 -196 -68 -34 -17 -64
-29 -66 -27 -8 7 124 85 171 101 116 39 317 53 506 35z m215 -20 c95 -10 85
-8 85 -21 0 -7 -13 -9 -37 -5 -21 3 -56 8 -78 11 -76 9 -105 16 -105 27 0 6
10 8 28 3 15 -4 63 -10 107 -15z m-1939 -20 c-30 -4 -52 -13 -58 -23 -5 -10
-21 -17 -40 -17 -40 0 -108 -21 -108 -33 0 -5 8 -6 18 -2 35 14 140 26 282 32
141 5 246 -5 384 -39 60 -15 39 -17 -69 -6 -189 18 -491 -23 -765 -105 -30 -9
-82 -24 -115 -33 -33 -9 -78 -24 -100 -34 -22 -10 -76 -30 -120 -45 -44 -14
-111 -41 -150 -59 -38 -18 -88 -41 -110 -51 -22 -10 -71 -33 -109 -52 -38 -18
-73 -33 -78 -33 -11 0 -10 61 1 78 9 15 286 142 310 142 19 0 124 36 177 61
22 10 47 19 55 19 8 1 25 7 39 15 25 14 25 14 2 15 -19 0 -62 -15 -167 -59
-11 -5 -40 -14 -65 -21 -59 -16 -94 -29 -155 -56 -204 -90 -205 -90 -205 -74
0 18 74 57 170 89 52 18 97 36 100 41 10 15 93 52 183 80 146 47 149 48 207
60 30 6 87 20 127 31 39 10 84 19 100 20 15 0 37 4 48 9 37 16 -80 11 -126 -5
-24 -9 -80 -23 -124 -32 -44 -8 -119 -28 -166 -44 -48 -16 -93 -29 -101 -29
-8 0 -28 -6 -44 -14 -58 -28 -100 -45 -164 -66 -74 -25 -192 -79 -200 -91 -10
-15 -89 -38 -95 -29 -4 6 0 22 7 37 10 20 33 35 90 58 42 17 80 34 84 38 4 4
14 7 22 7 8 0 42 13 76 28 96 44 273 102 371 122 50 10 106 23 125 29 41 12
176 31 270 38 36 3 68 8 72 11 4 4 42 5 85 3 74 -4 76 -5 29 -11z m320 -4
c102 -14 120 -18 252 -63 86 -30 90 -40 6 -17 -191 53 -251 63 -356 64 -89 0
-108 3 -108 15 0 19 67 20 206 1z m1816 -5 c13 -5 66 -19 118 -30 147 -33 318
-71 388 -86 36 -8 137 -16 228 -17 140 -3 164 -5 162 -18 -4 -19 -63 -28 -181
-29 -111 -1 -197 12 -367 55 -194 49 -230 60 -274 78 -21 9 -51 16 -67 16 -39
0 -84 21 -67 32 17 10 32 10 60 -1z m1059 -58 c-7 -32 -17 -71 -22 -88 -8 -27
-8 -25 -3 10 8 64 27 146 32 140 3 -3 0 -31 -7 -62z m-1341 46 c198 -27 257
-38 348 -64 28 -8 76 -22 105 -30 56 -15 297 -73 412 -99 79 -18 257 -25 296
-13 28 9 44 -9 33 -38 -13 -32 -313 -20 -484 19 -90 20 -283 75 -335 95 -54
21 -124 43 -155 50 -19 5 -55 16 -80 25 -25 8 -58 16 -73 16 -16 0 -36 4 -46
9 -9 5 -35 12 -57 15 -21 3 -59 10 -84 15 l-45 8 45 1 c25 1 79 -4 120 -9z
m20 -58 c52 -11 109 -24 125 -29 17 -5 50 -15 75 -23 25 -7 49 -16 54 -21 6
-4 22 -8 36 -8 14 0 45 -9 68 -20 22 -11 49 -20 59 -20 10 0 45 -9 78 -19 208
-68 403 -96 646 -93 67 0 67 0 71 -30 3 -18 0 -32 -8 -35 -27 -10 -262 5 -329
21 -38 9 -97 23 -130 31 -33 8 -85 21 -115 30 -30 9 -68 14 -85 12 l-30 -3 35
-16 c19 -9 69 -24 110 -33 41 -10 113 -29 160 -43 75 -22 104 -25 251 -26 129
-1 165 -4 162 -13 -3 -7 -13 -13 -22 -14 -9 0 -47 -3 -86 -5 -39 -3 -103 2
-145 9 -41 8 -84 15 -95 15 -11 1 -58 10 -105 22 -47 12 -98 24 -115 27 -16 2
-39 8 -50 13 -38 16 -80 29 -100 32 -11 2 -22 5 -25 8 -3 3 -39 16 -80 30 -41
13 -79 27 -85 31 -5 3 -35 14 -65 24 -30 10 -49 20 -42 23 7 2 41 -5 75 -17
127 -42 160 -51 168 -45 14 9 10 24 -6 24 -9 0 -26 6 -38 14 -12 8 -38 16 -58
19 -19 2 -46 10 -60 17 -38 21 -186 53 -299 66 -30 3 -66 10 -80 15 -28 10
-90 17 -260 27 -63 4 -108 10 -100 14 8 3 22 9 30 12 31 12 316 -4 410 -23z
m-670 15 c0 -3 -30 -19 -67 -37 -38 -18 -83 -43 -101 -57 -18 -14 -35 -22 -39
-18 -10 10 5 21 97 70 77 41 110 54 110 42z m-197 -24 c-10 -10 -32 -34 -50
-55 -21 -23 -38 -35 -47 -31 -14 5 -14 9 -1 27 14 20 92 75 108 76 4 1 -1 -7
-10 -17z m2087 -17 c0 -8 -4 -15 -10 -15 -5 0 -7 7 -4 15 4 8 8 15 10 15 2 0
4 -7 4 -15z m-1253 -69 c9 -9 -39 -6 -62 4 -15 7 -11 8 18 6 21 -2 41 -6 44
-10z m-1297 -4 c0 -5 -8 -17 -19 -26 -20 -18 -57 -104 -48 -112 3 -3 14 10 26
29 29 47 111 108 111 83 0 -6 -71 -130 -82 -144 -6 -7 -9 -15 -6 -18 3 -3 21
14 39 38 35 45 59 67 72 68 14 0 6 -18 -34 -78 -48 -71 -44 -97 7 -52 19 16
39 30 45 30 15 0 -64 -138 -117 -203 -47 -59 -85 -150 -150 -362 -33 -110 -68
-211 -93 -268 l-21 -48 -45 36 c-25 21 -45 39 -45 42 0 2 7 18 16 34 21 41 10
50 -13 11 l-18 -31 -37 21 c-23 13 -38 29 -38 40 0 35 40 131 84 202 24 39 70
123 101 186 l57 115 -7 98 c-5 76 -2 113 12 172 10 41 21 75 25 75 11 0 21
-66 13 -89 -11 -35 10 -24 28 15 10 20 41 60 69 90 48 51 68 64 68 46z m1395
-23 c78 -16 100 -22 106 -31 3 -5 17 -10 30 -12 13 -2 31 -6 39 -9 22 -9 151
-53 265 -91 145 -47 237 -70 385 -97 78 -14 271 -22 335 -14 l54 6 6 47 c4 26
10 65 15 87 8 35 9 32 6 -25 -2 -36 -11 -91 -20 -122 -16 -54 -20 -58 -58 -69
-41 -11 -45 -10 -229 21 -30 6 -67 10 -82 10 -14 0 -29 5 -32 10 -3 6 -33 10
-65 10 -34 0 -79 8 -107 19 -26 10 -50 19 -53 18 -17 -1 -84 16 -107 28 -15 8
-34 15 -40 15 -7 0 -41 13 -75 29 -87 41 -127 58 -205 87 -38 14 -72 29 -78
34 -5 4 -45 18 -87 31 -43 13 -78 28 -78 32 0 5 8 6 18 2 9 -4 35 -11 57 -16z
m-1370 1 c-3 -5 -16 -15 -28 -21 -22 -12 -22 -12 -3 10 19 21 43 30 31 11z
m1492 4 c-3 -3 -12 -4 -19 -1 -8 3 -5 6 6 6 11 1 17 -2 13 -5z m1137 -33 c-4
-17 -9 -30 -11 -27 -3 2 -2 19 2 36 4 17 9 30 11 27 2 -2 1 -18 -2 -36z
m-2055 -8 c15 -58 40 -183 47 -233 4 -25 13 -58 21 -73 29 -58 122 -187 234
-327 64 -80 131 -172 150 -205 48 -88 128 -205 144 -211 7 -3 48 -43 90 -90
l76 -84 -56 -72 c-31 -40 -66 -90 -76 -111 l-20 -38 -58 83 c-31 46 -60 91
-64 101 -11 30 -113 170 -161 221 -25 27 -46 53 -46 59 0 6 -20 37 -45 69 -25
31 -66 101 -91 155 -25 54 -65 136 -88 183 -24 47 -47 107 -50 135 -14 99 -47
165 -84 165 -9 0 -24 8 -35 17 -18 17 -19 17 -32 0 -9 -12 -15 -14 -20 -7 -4
6 -14 10 -23 8 -31 -5 -217 140 -201 156 2 3 35 -11 73 -30 67 -35 95 -40 59
-10 -10 8 -38 31 -63 52 -46 37 -66 62 -57 70 7 8 86 -34 130 -68 20 -16 37
-26 37 -21 0 5 -29 31 -64 58 -60 46 -81 75 -55 75 6 0 23 -9 37 -21 49 -38
135 -90 140 -84 7 6 9 5 -60 48 -54 34 -73 57 -47 57 12 0 108 -66 162 -112
47 -40 61 -30 64 50 2 76 2 72 13 72 5 0 14 -17 19 -37z m1981 9 c0 -18 -5
-29 -15 -29 -8 0 -12 4 -9 9 3 4 0 8 -5 8 -6 0 -11 9 -11 20 0 13 7 20 20 20
15 0 20 -7 20 -28z m-2495 -18 c-23 -17 -32 -10 -15 11 7 8 17 12 23 8 6 -4 3
-11 -8 -19z m67 -25 c18 -13 27 -27 24 -36 -13 -32 59 -125 145 -189 42 -31
49 -40 49 -70 0 -20 5 -67 11 -105 6 -39 8 -81 5 -94 -6 -22 -9 -23 -33 -14
-66 25 -74 -33 -12 -83 38 -31 116 -126 108 -132 -6 -4 -101 -56 -104 -56 -1
0 0 11 3 25 4 21 1 25 -19 25 -16 0 -44 -21 -86 -65 -49 -51 -65 -77 -79 -122
-45 -154 -43 -151 -129 -241 -46 -48 -103 -111 -126 -141 -73 -90 -107 -134
-143 -181 -19 -25 -74 -79 -123 -120 -77 -66 -91 -74 -110 -65 -17 7 -23 18
-23 42 0 18 -9 72 -21 120 -19 83 -19 89 -3 98 44 25 104 90 132 142 17 32 63
91 101 131 69 70 82 97 61 118 -7 7 2 51 30 139 22 71 40 137 40 146 0 10 18
68 41 131 23 62 52 146 65 187 18 55 35 86 68 121 42 45 116 176 116 206 0 21
-33 17 -66 -8 l-29 -23 19 30 c11 17 25 39 33 50 7 11 13 27 13 37 0 23 5 23
42 -3z m-1922 -129 c0 -5 -5 -10 -11 -10 -5 0 -7 5 -4 10 3 6 8 10 11 10 2 0
4 -4 4 -10z m2226 -172 c13 -29 27 -70 30 -90 4 -21 10 -38 15 -38 13 0 11 24
-5 67 -8 21 -17 56 -21 78 l-6 40 20 -25 c20 -25 26 -43 41 -120 8 -40 8 -37
6 28 -2 39 0 72 4 72 14 0 38 -123 51 -250 10 -110 15 -129 39 -160 15 -19 30
-43 33 -53 4 -9 17 -21 30 -26 13 -5 51 -45 85 -88 108 -139 303 -404 332
-452 32 -53 63 -154 79 -261 6 -41 16 -104 21 -140 5 -36 10 -78 10 -93 l0
-28 -37 30 c-54 43 -107 62 -180 66 -35 1 -66 5 -68 7 -3 3 -7 54 -9 114 -2
62 -10 122 -17 139 -8 17 -50 86 -95 155 -44 69 -96 154 -114 190 -19 36 -48
90 -66 120 -79 137 -104 192 -94 210 15 29 12 40 -11 40 -15 0 -19 5 -15 15 8
23 -4 45 -25 45 -10 0 -31 18 -47 43 -17 23 -51 61 -78 85 -26 23 -44 45 -41
48 9 10 54 -4 71 -21 13 -14 16 -13 25 3 6 11 9 21 7 23 -2 2 -6 27 -9 54 -4
28 -13 77 -21 110 -8 33 -13 61 -11 63 5 5 32 -48 56 -113 30 -82 34 -61 5 31
-13 44 -27 91 -30 107 -11 46 13 31 40 -25z m-2531 -48 c22 -42 19 -54 -14
-67 -28 -10 -30 -9 -36 18 -5 20 -1 38 9 54 21 31 22 31 41 -5z m73 5 c7 -14
12 -37 12 -50 0 -21 -2 -22 -25 -12 -27 12 -41 46 -31 72 9 23 32 18 44 -10z
m58 8 c18 -24 18 -94 0 -119 -17 -23 -20 -17 -34 63 -6 35 -6 55 1 62 15 15
18 14 33 -6z m68 -46 c12 -34 -3 -81 -27 -85 -14 -3 -17 4 -17 41 0 78 24 102
44 44z m-134 -47 c0 -5 -13 -19 -30 -32 -36 -26 -38 -38 -7 -38 40 0 64 -11
77 -36 8 -13 17 -24 22 -24 18 0 -24 61 -48 70 -21 9 -23 12 -12 30 16 25 24
25 30 2 7 -26 76 -37 99 -16 26 24 33 2 35 -114 l1 -102 102 -200 c56 -110
124 -237 152 -282 89 -148 86 -173 -43 -356 -26 -37 -64 -95 -85 -129 -21 -35
-41 -63 -45 -63 -4 0 -34 18 -67 40 -33 22 -67 40 -76 40 -21 0 -29 23 -21 64
5 28 16 40 59 64 59 33 127 103 127 130 0 9 -9 31 -20 47 -11 17 -20 38 -20
48 0 11 -9 21 -20 24 -16 4 -18 9 -9 24 8 15 5 26 -11 49 -17 24 -19 32 -9 48
15 25 6 50 -23 61 -12 4 -23 17 -23 27 -1 30 -34 174 -55 234 -11 30 -24 75
-30 98 -8 33 -25 57 -67 95 -30 29 -66 58 -79 65 -20 11 -24 20 -24 62 0 28 1
50 3 50 1 0 20 7 42 15 47 17 75 19 75 5z m4781 -129 c-3 -36 -11 -66 -18 -68
-18 -6 -35 35 -28 69 6 27 42 75 50 66 1 -1 0 -32 -4 -67z m77 41 c2 -13 -6
-31 -21 -44 -13 -13 -28 -31 -34 -41 -7 -14 -9 -8 -8 27 3 69 55 116 63 58z
m-968 8 c0 -5 -5 -10 -11 -10 -5 0 -7 5 -4 10 3 6 8 10 11 10 2 0 4 -4 4 -10z
m1030 -36 c0 -32 -2 -35 -22 -28 -32 9 -33 11 -20 39 18 38 42 32 42 -11z
m-1149 16 c21 -12 27 -45 7 -36 -7 3 -21 9 -30 12 -19 7 -23 16 -11 27 8 9 11
9 34 -3z m158 -16 c18 -13 20 -18 10 -25 -8 -5 -22 -6 -32 -3 -16 5 -18 1 -15
-22 5 -42 -19 -40 -31 2 -16 60 17 83 68 48z m-1212 -164 l14 -35 -26 30 c-36
41 -51 73 -59 120 -6 40 -6 39 25 -20 18 -33 38 -76 46 -95z m1034 134 c11
-14 9 -15 -21 -12 -29 2 -36 -1 -48 -24 -15 -32 -27 -35 -36 -12 -10 26 3 52
27 57 45 9 65 7 78 -9z m310 -4 c10 -6 19 -17 19 -25 0 -19 0 -19 -40 1 -24
12 -29 19 -19 25 18 11 17 11 40 -1z m-2904 -72 c11 -13 32 -42 47 -65 22 -36
31 -43 59 -43 53 0 64 -13 38 -46 -20 -25 -20 -29 -6 -50 14 -22 13 -25 -14
-45 -35 -26 -30 -49 9 -49 25 0 28 -4 35 -46 6 -45 5 -48 -39 -93 -51 -51 -64
-82 -16 -36 35 33 39 26 9 -17 -12 -16 -18 -32 -14 -36 4 -4 16 6 28 23 12 16
54 65 92 107 62 68 111 144 129 201 5 15 17 9 78 -43 40 -34 89 -76 108 -93
19 -17 47 -39 63 -49 l27 -18 -71 -72 c-39 -40 -83 -98 -99 -128 -27 -53 -38
-65 -184 -179 -31 -24 -56 -48 -56 -52 0 -15 12 -10 36 12 l23 21 21 -42 c18
-35 54 -171 47 -175 -51 -28 -122 -72 -197 -122 -87 -60 -95 -63 -107 -47 -16
22 -16 64 0 85 7 8 33 21 58 28 26 7 64 27 84 44 37 30 37 30 31 89 -9 73 -14
88 -33 88 -12 0 -12 3 1 22 14 20 14 24 1 45 -14 21 -14 26 0 54 21 39 8 57
-43 61 -33 3 -39 8 -58 48 -12 25 -29 52 -38 59 -9 7 -16 25 -16 40 0 15 -6
33 -12 40 -11 11 -9 12 10 6 15 -4 22 -2 22 7 0 22 -51 66 -95 82 -26 10 -33
15 -20 16 16 1 14 4 -10 16 -19 9 -46 12 -74 8 -26 -3 -41 -2 -37 4 3 5 -12 9
-35 9 -51 0 -90 33 -73 61 15 23 48 27 67 8 9 -9 18 -16 20 -16 2 0 3 38 2 85
-2 63 -7 91 -19 104 -16 17 -15 19 8 35 14 9 36 16 49 16 30 0 40 10 26 27 -9
10 -4 13 27 14 22 0 48 4 59 9 29 12 29 12 52 -12z m2654 -5 c7 -16 15 -31 17
-35 2 -5 -3 -8 -11 -8 -15 0 -47 41 -47 60 0 21 27 9 41 -17z m219 -13 c0 -12
-28 -25 -36 -17 -9 9 6 27 22 27 8 0 14 -5 14 -10z m145 -10 c18 -20 18 -21
-3 -42 -24 -24 -42 -18 -22 8 12 13 11 17 -1 25 -8 4 -22 6 -31 3 -10 -3 -18
-1 -18 4 0 28 50 30 75 2z m-451 -35 c3 -13 22 -36 41 -51 19 -14 32 -30 29
-35 -3 -5 -7 -30 -9 -55 -2 -25 -6 -48 -9 -51 -3 -3 -27 14 -55 38 -42 36 -48
46 -40 62 16 29 3 47 -33 47 l-33 1 37 34 c44 41 64 44 72 10z m-1214 -29 c0
-14 -61 -59 -97 -70 -20 -6 -52 -36 -39 -36 4 0 32 13 64 29 80 40 102 46 102
27 0 -9 -12 -23 -27 -32 -26 -16 -102 -64 -112 -71 -2 -2 -2 -6 1 -9 4 -3 32
8 64 25 32 16 62 27 67 24 11 -6 -7 -22 -88 -82 -58 -43 -50 -52 15 -17 38 21
50 24 50 12 0 -15 -97 -101 -165 -145 -59 -38 -66 -47 -111 -135 -144 -285
-209 -390 -293 -476 -30 -30 -65 -73 -79 -95 -14 -22 -48 -69 -76 -103 -45
-56 -51 -61 -54 -41 -12 112 -13 115 -27 89 l-13 -24 -16 38 c-9 21 -16 42
-16 45 0 4 -14 29 -31 56 l-31 49 48 43 c27 24 63 53 79 64 17 12 55 56 85 98
94 131 142 190 236 292 83 90 94 106 113 172 13 39 33 96 47 125 23 51 97 142
115 142 5 0 9 -13 9 -29 l0 -30 77 40 c83 42 103 47 103 25z m1746 -61 c6 -5
14 -22 16 -37 4 -23 2 -28 -14 -28 -15 0 -18 5 -14 17 7 16 -23 53 -44 53 -14
0 -13 18 2 34 11 11 15 10 27 -8 9 -11 20 -25 27 -31z m-225 35 c24 -13 24
-29 2 -74 -20 -40 -21 -41 -47 -21 -17 13 -14 41 4 30 11 -7 42 24 35 36 -10
15 -42 10 -49 -8 -5 -13 -9 -14 -19 -4 -9 10 -7 17 12 32 27 22 35 23 62 9z
m-361 -19 c0 -15 -42 -63 -64 -71 -48 -17 -61 16 -21 55 23 24 85 36 85 16z
m-119 -39 c-26 -49 26 -70 80 -31 l29 21 50 -42 c53 -44 60 -63 35 -90 -14
-16 -13 -19 10 -34 24 -16 28 -16 50 -2 14 9 31 16 39 16 20 0 38 -34 29 -57
-14 -40 -35 -53 -85 -53 -49 0 -59 -8 -34 -29 11 -10 12 -19 4 -42 -9 -26 -7
-34 11 -53 11 -12 21 -32 21 -43 0 -24 24 -53 44 -53 30 0 66 -26 64 -45 -3
-17 -10 -20 -48 -19 -118 3 -139 7 -169 33 -26 23 -30 34 -33 85 -3 57 -2 60
22 67 29 8 24 10 -50 13 -30 1 -78 10 -106 21 -62 22 -75 48 -58 115 9 40 14
46 47 53 38 9 51 27 20 27 -10 0 -27 7 -37 15 -18 14 -18 15 5 34 l24 20 -22
40 c-13 22 -23 42 -23 45 0 4 81 13 88 9 2 -1 -1 -10 -7 -21z m-3816 -1 c-14
-12 -65 -23 -65 -13 0 16 13 22 44 22 17 0 26 -4 21 -9z m4120 -7 c22 -14 23
-19 12 -38 -6 -11 -12 -34 -12 -51 0 -19 -6 -31 -16 -33 -12 -2 -17 4 -17 20
0 13 -4 44 -8 71 -7 52 0 58 41 31z m1786 -136 c103 -82 160 -148 199 -230 39
-83 53 -153 48 -258 -2 -71 -7 -92 -23 -110 -14 -16 -16 -24 -7 -27 27 -10 6
-58 -52 -121 -36 -39 -85 -62 -132 -62 -48 0 -50 -16 -4 -40 45 -23 106 -105
116 -157 8 -39 8 -39 -73 -13 -68 21 -103 40 -145 79 -45 40 -43 17 2 -30 22
-23 49 -43 59 -44 44 -3 198 -165 213 -223 5 -21 -16 -3 -94 77 -56 58 -98 96
-94 85 4 -10 8 -23 9 -29 1 -5 21 -38 45 -73 42 -61 117 -211 109 -218 -7 -7
-57 37 -57 49 -1 12 -134 116 -222 174 -27 17 -72 57 -99 90 -135 157 -168
192 -211 224 -26 19 -48 39 -48 45 0 12 -162 56 -183 49 -6 -2 -31 -6 -54 -9
-51 -7 -58 11 -17 43 14 11 23 25 19 31 -9 15 22 60 42 60 9 0 25 8 35 17 16
14 23 15 38 5 11 -7 26 -12 33 -12 22 0 233 211 251 250 15 35 31 63 114 197
44 73 79 203 67 251 -7 28 -12 31 116 -70z m-5766 61 c10 -15 -1 -22 -24 -14
-12 3 -19 11 -16 16 8 12 32 11 40 -2z m-378 -16 c5 -14 -53 -47 -67 -38 -15
10 -54 -36 -75 -87 -22 -53 -30 -58 -39 -25 -8 32 -8 37 7 37 7 0 21 17 32 37
21 38 99 96 124 91 8 -2 16 -8 18 -15z m4683 -13 c0 -5 -7 -10 -16 -10 -8 0
-12 5 -9 10 3 6 10 10 16 10 5 0 9 -4 9 -10z m75 -10 c11 -17 -5 -32 -21 -19
-8 6 -14 15 -14 20 0 12 27 11 35 -1z m-4245 -91 c45 -46 53 -51 100 -53 61
-4 67 -8 51 -42 -10 -22 -8 -30 11 -56 l22 -31 -27 -21 c-35 -28 -34 -36 6
-36 29 0 35 -5 53 -42 10 -24 20 -46 22 -50 2 -3 -12 -23 -30 -43 -32 -37
-130 -90 -178 -97 -31 -4 -33 -22 -2 -26 16 -3 22 -8 18 -19 -3 -8 -6 -26 -6
-39 0 -23 -3 -24 -60 -24 l-60 0 0 49 c0 33 -6 56 -20 74 -17 21 -18 26 -5 31
8 3 15 13 15 22 0 16 -1 16 -18 1 -25 -23 -39 -21 -79 9 -36 27 -45 67 -17 78
26 10 59 7 73 -6 12 -11 12 -9 6 7 -5 11 -9 49 -10 85 0 36 -4 71 -8 77 -4 7
-1 33 7 58 12 33 13 52 5 72 -8 21 -6 30 7 42 9 9 14 10 10 4 -4 -7 -2 -13 4
-13 7 0 14 9 17 20 9 33 41 23 93 -31z m870 16 c-27 -28 -42 -33 -33 -9 5 15
3 15 -25 0 -17 -9 -34 -20 -37 -26 -3 -5 -12 -10 -18 -10 -7 0 -3 7 7 15 11 8
17 17 14 20 -7 7 -75 -22 -83 -35 -3 -5 -11 -10 -17 -10 -19 0 14 31 51 46 20
9 60 17 88 18 29 1 56 5 60 9 19 20 13 3 -7 -18z m3085 5 c3 -5 -3 -10 -14
-10 -12 0 -21 5 -21 10 0 6 6 10 14 10 8 0 18 -4 21 -10z m-3055 -55 c-7 -8
-17 -12 -22 -9 -5 3 -1 15 9 26 20 22 32 6 13 -17z m238 -1 c33 -10 5 -21 -53
-20 -65 1 -82 14 -34 27 22 6 54 4 87 -7z m-1328 -53 c0 -19 -17 -38 -25 -29
-7 7 7 48 16 48 5 0 9 -9 9 -19z m842 -13 c-12 -12 -25 -18 -29 -14 -4 4 3 16
16 27 31 25 41 15 13 -13z m3494 12 c19 0 18 -16 -2 -24 -17 -7 -44 9 -44 26
0 6 7 7 16 4 9 -3 22 -6 30 -6z m-3016 -18 c0 -13 -12 -22 -22 -16 -10 6 -1
24 13 24 5 0 9 -4 9 -8z m2670 -2 c0 -5 14 -10 30 -10 34 0 38 -14 13 -42 -15
-17 -15 -19 0 -36 10 -10 14 -22 10 -25 -3 -4 3 -7 15 -7 27 0 38 -18 17 -26
-11 -5 -26 4 -44 27 -23 27 -27 39 -20 56 6 17 5 23 -4 23 -22 0 -51 26 -43
38 9 15 26 16 26 2z m-4586 -27 c-4 -10 -9 -39 -9 -66 -2 -57 -11 -69 -25 -33
-20 54 -6 116 26 116 12 0 14 -5 8 -17z m4236 -52 c0 -17 79 -78 153 -120 23
-13 60 -36 82 -52 37 -28 40 -28 47 -10 6 17 11 19 45 10 21 -6 47 -14 58 -18
11 -5 33 -14 48 -20 16 -6 53 -32 83 -58 l54 -47 -27 -28 c-14 -15 -41 -32
-60 -39 -38 -12 -44 -39 -17 -77 15 -21 15 -25 0 -41 -22 -24 -20 -38 7 -53
l22 -12 -24 -6 c-14 -3 -26 -14 -27 -25 -2 -11 -6 -38 -9 -60 -11 -72 52 -135
134 -135 36 0 40 -6 50 -69 l8 -50 -46 -19 c-25 -10 -70 -38 -98 -61 -79 -62
-211 -259 -197 -294 3 -8 -2 -19 -10 -26 -8 -7 -20 -28 -26 -47 l-12 -34 -77
0 -78 0 11 50 c5 28 13 50 17 50 4 0 14 -18 22 -39 9 -22 21 -42 27 -46 15 -9
13 -4 -19 66 -17 35 -33 78 -36 94 l-7 30 21 -32 c40 -63 42 -32 3 40 -50 91
-74 165 -70 214 l3 38 27 -57 c15 -32 32 -58 38 -58 6 0 -2 24 -16 52 -22 44
-86 228 -80 228 3 0 50 -74 85 -133 24 -39 67 -74 78 -64 7 8 -51 100 -93 147
-29 33 -104 154 -104 168 0 3 32 -25 70 -63 119 -118 79 -48 -77 135 -137 160
-213 271 -213 312 0 29 94 187 158 266 33 41 35 42 53 26 11 -9 19 -24 19 -33z
m-3634 -59 c-5 -35 -21 -60 -31 -51 -2 3 1 20 7 37 11 28 10 35 -9 61 -29 38
-15 51 15 15 19 -22 23 -35 18 -62z m1399 13 c15 -30 30 -55 34 -56 3 0 21 -2
39 -4 46 -5 50 -11 29 -47 -17 -29 -17 -32 -1 -50 17 -17 16 -20 -9 -46 -34
-35 -34 -42 1 -42 26 0 29 -4 40 -57 11 -55 11 -59 -11 -75 -43 -33 -110 -61
-146 -61 l-37 0 4 -58 4 -58 -88 0 c-49 0 -107 -5 -129 -11 -59 -14 -75 -12
-75 8 0 13 18 25 66 43 53 19 68 30 76 52 6 15 19 32 29 38 14 7 19 21 19 51
0 27 6 45 17 54 10 7 15 16 10 20 -4 4 -13 2 -19 -4 -17 -17 -22 -15 -57 14
-30 25 -38 54 -25 88 8 21 33 20 56 0 14 -14 20 -14 33 -4 18 15 19 47 0 123
-14 60 -11 102 6 75 6 -9 13 -1 25 29 9 23 20 40 25 38 4 -3 10 -1 14 5 12 19
43 -9 70 -65z m2845 53 c-27 -22 -53 -20 -58 3 -2 13 6 16 39 16 l43 0 -24
-19z m-446 -30 c5 -21 7 -41 4 -44 -6 -5 -118 73 -118 83 0 2 24 3 53 1 51 -3
52 -4 61 -40z m-3036 -53 c-6 -13 -15 -22 -19 -19 -5 2 -3 16 3 29 6 13 15 22
19 19 5 -2 3 -16 -3 -29z m232 27 c0 -4 -7 -18 -16 -30 -8 -12 -18 -47 -21
-77 -3 -32 -10 -52 -16 -48 -13 8 -2 95 18 132 14 28 35 42 35 23z m3420 -98
c0 -4 -16 -24 -35 -45 -34 -38 -56 -38 -35 0 16 30 70 65 70 45z m209 -39 c66
-31 61 -43 -8 -20 -28 9 -58 16 -68 15 -31 -4 -36 0 -23 15 17 21 36 19 99
-10z m-5429 -24 c0 -5 3 -23 6 -40 4 -19 2 -31 -4 -31 -17 0 -34 38 -27 60 6
20 25 28 25 11z m3330 -8 c0 -15 -43 -51 -56 -46 -21 8 -143 -119 -150 -156
-7 -32 -24 -43 -24 -16 0 50 87 152 170 199 47 27 60 31 60 19z m60 -13 c-6
-11 -15 -18 -21 -14 -6 4 -6 11 2 20 17 21 31 17 19 -6z m2250 -81 c0 -4 9 -9
19 -12 27 -7 81 -95 80 -132 0 -27 -3 -24 -30 30 -29 60 -30 58 -13 -32 11
-55 -13 -37 -26 20 -16 68 -34 102 -81 159 -54 65 -48 85 6 23 25 -27 45 -53
45 -56z m-3980 78 c0 -7 16 -45 35 -84 41 -84 46 -113 9 -60 -23 34 -74 139
-74 152 0 3 7 5 15 5 8 0 15 -6 15 -13z m-1432 -46 c6 -61 -76 -104 -120 -64
-22 20 -24 66 -3 83 19 16 34 5 17 -12 -16 -16 -15 -43 2 -57 22 -19 43 -4 38
28 -2 17 3 34 13 45 27 26 49 16 53 -23z m1320 -23 c2 12 7 22 12 22 13 0 22
-54 14 -85 -7 -27 -8 -27 -21 -9 -26 34 -52 104 -46 121 5 12 11 5 22 -28 12
-35 16 -39 19 -21z m3557 13 c-4 -13 -15 -21 -28 -21 -20 0 -19 -1 7 -29 27
-28 27 -29 17 -105 -9 -66 -9 -79 7 -104 l17 -29 29 18 c38 23 56 10 56 -37 0
-28 -6 -38 -32 -54 -43 -26 -61 -26 -53 0 5 15 3 18 -9 14 -20 -8 -21 -33 -1
-40 10 -4 15 -20 15 -45 0 -30 7 -47 30 -71 39 -41 43 -98 6 -98 -13 0 -38 -3
-55 -6 -29 -6 -31 -5 -31 24 0 17 -4 42 -9 55 -8 21 -6 26 12 32 16 5 3 10
-49 19 -76 13 -114 32 -139 70 -24 36 -2 100 39 112 31 9 48 34 24 34 -8 0
-22 6 -32 13 -16 12 -17 16 -5 34 11 18 11 26 -1 50 -8 15 -16 31 -18 36 -2 4
12 14 31 22 20 8 57 39 83 69 26 30 56 57 68 58 28 5 29 3 21 -21z m-1771 -47
c-51 -64 -64 -88 -89 -167 -29 -91 -32 -123 -5 -54 19 49 39 81 47 73 2 -2 -7
-30 -20 -62 -13 -33 -35 -89 -47 -127 -16 -45 -27 -64 -34 -57 -12 12 8 138
35 217 24 71 24 74 -5 35 -13 -18 -31 -58 -41 -90 -25 -86 -27 -90 -32 -70
-14 58 68 210 161 299 57 55 73 57 30 3z m-2494 -12 c0 -7 -5 -22 -11 -34
l-11 -20 -19 20 c-17 19 -17 22 -2 53 15 30 17 31 30 14 7 -11 13 -25 13 -33z
m3394 -38 c16 -26 53 -72 81 -103 69 -75 89 -117 110 -236 45 -261 57 -326 77
-399 17 -65 20 -94 14 -169 -3 -50 -9 -94 -14 -97 -4 -3 -79 -3 -168 0 l-161
5 37 148 c21 82 41 188 44 235 9 102 23 177 42 213 12 24 10 31 -23 85 -37 60
-40 69 -62 257 -6 49 -13 93 -17 98 -3 5 -2 9 3 9 4 0 21 -21 37 -46z m-4392
-42 c-3 -35 -7 -41 -18 -31 -18 15 -18 29 2 57 20 29 22 27 16 -26z m5318 -8
c0 -21 -4 -33 -10 -29 -17 10 -11 65 7 65 2 0 3 -16 3 -36z m-5185 16 c3 -6
-5 -14 -19 -20 -29 -11 -30 -13 -16 -41 16 -29 2 -44 -22 -23 -20 19 -18 55 4
81 13 15 44 17 53 3z m1745 -60 c0 -15 -11 -12 -32 7 -10 9 -18 25 -18 37 0
19 2 19 25 -6 14 -15 25 -32 25 -38z m99 -14 c-9 -9 -50 25 -43 36 4 6 14 2
27 -11 12 -11 19 -23 16 -25z m-989 5 c0 -21 -14 -45 -51 -85 -54 -59 -75 -65
-57 -15 16 46 2 46 -22 0 -13 -27 -27 -41 -40 -41 -25 0 -25 4 3 33 12 14 35
44 52 68 l30 44 5 -45 5 -45 23 29 c12 16 22 42 22 57 0 19 5 29 15 29 10 0
15 -10 15 -29z m1050 -12 c0 -5 -6 -9 -14 -9 -15 0 -28 24 -19 34 7 7 33 -13
33 -25z m-1415 -6 c-4 -10 -10 -30 -13 -45 -3 -23 -10 -28 -32 -28 -16 0 -30
-6 -33 -12 -2 -7 -8 -9 -13 -5 -12 12 10 42 34 45 14 2 23 13 27 33 4 16 13
29 22 29 11 0 13 -5 8 -17z m-274 -54 c-25 -21 -99 -35 -112 -22 -13 13 -1 43
17 43 8 0 11 -6 8 -15 -9 -22 9 -18 24 6 8 12 19 18 30 15 9 -3 24 -1 32 4 24
15 26 -11 1 -31z m2439 -12 c0 -5 -4 -5 -10 -2 -5 3 -10 14 -10 23 0 15 2 15
10 2 5 -8 10 -19 10 -23z m1419 2 c57 -12 145 -64 135 -80 -3 -6 5 -23 19 -37
42 -43 60 -97 47 -137 -6 -18 -19 -100 -30 -181 -19 -150 -57 -370 -66 -385
-2 -5 -134 -8 -292 -8 -158 0 -345 -2 -417 -5 -194 -9 -613 -11 -620 -4 -4 3
3 24 14 45 24 48 50 51 95 11 34 -31 54 -34 111 -14 37 13 41 13 47 -4 15 -41
137 -37 222 7 48 24 51 25 79 8 35 -21 81 -16 153 17 27 12 56 21 65 20 9 -2
22 4 29 13 18 21 33 19 25 -5 -10 -31 42 -26 88 9 66 50 93 99 123 221 l27
112 -17 92 c-16 84 -16 94 -1 129 22 52 75 72 148 53 15 -3 27 -3 27 2 0 16
-51 32 -102 32 l-51 0 6 41 c8 61 33 70 136 48z m-4139 -27 c0 -5 -12 -18 -26
-31 -29 -25 -27 -45 4 -49 29 -4 29 -22 0 -22 -26 0 -58 27 -58 50 0 23 37 60
60 60 11 0 20 -4 20 -8z m94 -31 c3 -4 -1 -17 -9 -27 -21 -27 -19 -34 15 -45
34 -13 40 -29 9 -29 -38 0 -59 19 -59 53 0 42 29 73 44 48z m-223 -54 c-13
-13 -15 1 -4 30 7 17 8 17 11 -1 2 -10 -1 -23 -7 -29z m2175 34 c-3 -5 -23
-12 -43 -16 -64 -12 -172 -53 -252 -96 -65 -35 -73 -37 -52 -16 43 47 159 100
256 118 50 9 91 17 93 18 2 1 1 -3 -2 -8z m744 -47 c0 -8 -4 -12 -10 -9 -5 3
-10 10 -10 16 0 5 5 9 10 9 6 0 10 -7 10 -16z m321 -63 c-17 -33 -31 -68 -31
-78 0 -23 -16 -48 -23 -37 -9 16 19 102 47 144 39 59 43 43 7 -29z m-2671 49
c0 -5 -7 -10 -15 -10 -8 0 -15 5 -15 10 0 6 7 10 15 10 8 0 15 -4 15 -10z
m3360 1 c0 -5 -7 -11 -15 -15 -9 -3 -15 0 -15 9 0 8 7 15 15 15 8 0 15 -4 15
-9z m-783 -90 c-38 -76 -42 -92 -42 -157 0 -40 -3 -76 -7 -79 -4 -4 -21 3 -37
15 -27 19 -31 27 -31 68 1 54 39 174 58 180 9 3 6 -12 -8 -47 -23 -58 -26
-129 -7 -154 10 -14 12 -7 14 43 1 35 11 80 23 107 20 46 69 118 75 111 2 -2
-15 -41 -38 -87z m2302 14 c17 -70 71 -162 125 -215 50 -48 62 -74 20 -41 -15
12 -32 21 -38 21 -15 1 -75 82 -108 148 -20 38 -28 70 -28 105 0 60 11 52 29
-18z m-5009 30 c7 -8 17 -11 24 -7 19 12 144 9 139 -5 -6 -16 -49 -25 -87 -17
-20 3 -36 1 -40 -5 -10 -15 -66 15 -66 34 0 19 14 19 30 0z m5061 -55 c14 -33
41 -68 77 -100 36 -32 50 -50 39 -50 -42 0 -147 131 -147 183 0 28 8 19 31
-33z m-5202 -4 c-6 -6 -13 -6 -21 2 -8 8 -8 15 2 28 13 15 15 14 21 -3 4 -10
3 -22 -2 -27z m3714 -59 c-3 -6 -17 11 -30 37 -13 26 -20 52 -16 58 4 8 15 -7
29 -37 13 -27 20 -53 17 -58z m-3783 47 c0 -9 -10 -18 -21 -21 -20 -5 -21 -11
-15 -59 7 -60 -6 -72 -23 -23 -19 54 -14 98 12 109 33 13 47 12 47 -6z m478 4
c-3 -7 -19 -21 -37 -31 -36 -22 -95 -17 -105 8 -4 12 2 14 33 9 26 -4 48 -1
67 10 36 19 47 20 42 4z m5242 -80 c39 -87 67 -210 54 -246 -10 -30 -44 -43
-44 -18 0 9 4 16 9 16 21 0 21 42 2 120 -12 45 -30 102 -41 127 -11 25 -20 49
-20 54 0 22 13 4 40 -53z m-5869 -16 c-7 -13 -7 -22 0 -29 6 -6 9 -19 7 -29
-3 -16 -6 -15 -23 9 -18 28 -18 30 1 65 13 24 20 30 22 19 2 -9 -1 -24 -7 -35z
m249 36 c0 -14 -46 -39 -54 -31 -3 3 -1 14 5 24 11 21 49 26 49 7z m-197 -44
c-4 -10 -9 -12 -15 -6 -12 12 -1 35 12 27 5 -3 6 -13 3 -21z m307 6 c0 -11
-33 -30 -52 -30 -7 1 -3 9 11 20 25 22 41 26 41 10z m2811 -105 c-24 -76 -27
-116 -6 -67 8 17 19 32 25 32 16 0 12 -57 -5 -64 -11 -4 -15 -20 -15 -57 0
-51 0 -52 -20 -34 -15 14 -20 31 -21 74 0 48 -2 53 -11 31 -5 -14 -8 -63 -5
-112 5 -93 -7 -120 -19 -42 -11 77 1 164 31 224 61 121 80 127 46 15z m-2909
35 c16 0 18 -3 9 -14 -8 -9 -32 -13 -74 -12 -50 1 -62 4 -65 18 -3 15 2 17 27
12 19 -4 37 -1 53 10 20 15 23 15 26 1 2 -8 13 -15 24 -15z m218 -2 c0 -30 0
-31 20 -13 19 17 20 17 19 -1 0 -22 -54 -68 -69 -59 -6 4 -6 15 0 31 6 14 10
36 10 50 0 13 5 24 10 24 6 0 10 -14 10 -32z m5361 -71 c7 -47 9 -93 6 -101
-11 -29 -25 -16 -24 22 1 20 -2 71 -6 112 -12 108 10 79 24 -33z m179 -11
c-15 -15 -42 39 -34 70 12 51 18 50 31 -6 7 -30 8 -59 3 -64z m-5648 92 c0 -7
2 -17 3 -23 2 -5 3 -18 4 -27 1 -12 7 -16 19 -12 9 3 0 -10 -21 -29 -38 -35
-89 -56 -94 -40 -2 5 -16 8 -32 5 -30 -4 -71 12 -71 28 0 6 16 8 39 4 50 -8
74 6 107 61 26 45 43 57 46 33z m5328 -120 c0 -7 -16 4 -35 24 -19 21 -35 43
-35 50 0 7 16 -4 35 -24 19 -21 35 -43 35 -50z m-1793 -20 c-7 -98 -12 -114
-38 -121 -23 -6 -23 0 -4 83 8 36 17 77 20 93 3 15 10 27 17 27 8 0 9 -24 5
-82z m1573 34 c0 -15 -2 -15 -10 -2 -13 20 -13 33 0 25 6 -3 10 -14 10 -23z
m140 -17 c6 -19 16 -35 21 -35 5 0 9 -4 9 -10 0 -5 -6 -10 -13 -10 -14 0 -31
27 -42 68 -10 36 12 25 25 -13z m-1864 -60 c-1 -38 -8 -63 -23 -82 -28 -38
-41 -22 -19 24 15 31 15 35 2 24 -9 -7 -26 -30 -38 -50 -26 -43 -47 -60 -70
-61 -25 0 -23 17 3 25 11 4 35 28 54 53 19 26 43 55 54 64 12 10 21 27 21 38
0 11 4 20 9 20 5 0 8 -25 7 -55z m-286 15 c0 -17 -7 -47 -15 -68 l-15 -37 31
35 c34 39 33 16 -3 -35 -37 -55 -103 -88 -71 -36 15 24 43 91 38 91 -2 0 -16
-23 -31 -51 -17 -30 -45 -62 -71 -80 -49 -33 -63 -36 -63 -14 0 8 5 15 10 15
25 0 87 50 106 86 76 139 84 147 84 94z m-417 -38 c-6 -46 -23 -58 -23 -16 0
25 18 69 25 62 2 -2 1 -22 -2 -46z m2132 -252 c-3 -5 -42 -10 -86 -10 -46 0
-79 4 -79 10 0 6 35 10 86 10 54 0 83 -4 79 -10z m-3572 -57 c-7 -2 -21 -2
-30 0 -10 3 -4 5 12 5 17 0 24 -2 18 -5z m3187 -8 c0 -7 -78 -12 -217 -13
-202 -3 -256 3 -167 17 65 10 384 7 384 -4z m-3830 -49 c0 -2 -15 -6 -34 -8
-19 -2 -32 0 -30 4 5 8 64 12 64 4z"/>
<path d="M3221 6559 c-55 -24 -49 -34 9 -14 23 8 51 15 61 15 10 0 21 5 24 10
10 17 -47 10 -94 -11z"/>
<path d="M4558 6223 c7 -3 16 -2 19 1 4 3 -2 6 -13 5 -11 0 -14 -3 -6 -6z"/>
<path d="M4790 6115 c-9 -11 -10 -19 -3 -26 8 -8 13 -5 18 11 9 28 2 35 -15
15z"/>
<path d="M5150 5493 c0 -12 8 -23 20 -26 11 -3 20 -2 20 2 0 5 -9 16 -20 26
-19 18 -20 17 -20 -2z"/>
<path d="M4655 5730 c3 -5 10 -10 16 -10 5 0 9 5 9 10 0 6 -7 10 -16 10 -8 0
-12 -4 -9 -10z"/>
<path d="M4776 5681 c-4 -7 -5 -15 -2 -18 9 -9 19 4 14 18 -4 11 -6 11 -12 0z"/>
<path d="M5245 5044 c4 -11 11 -37 14 -58 8 -50 31 -61 31 -14 0 38 -19 79
-39 86 -11 4 -12 0 -6 -14z"/>
<path d="M3246 5721 c-10 -11 -16 -26 -14 -33 3 -8 9 -5 17 10 6 12 18 22 26
22 7 0 17 5 20 10 11 18 -32 10 -49 -9z"/>
<path d="M3302 5678 c-18 -18 -14 -34 8 -34 14 0 20 7 20 23 0 25 -10 29 -28
11z"/>
<path d="M3065 5479 c-4 -6 -3 -15 3 -21 6 -6 11 -4 15 6 7 18 -9 31 -18 15z"/>
<path d="M3730 5451 c0 -13 99 -71 105 -61 7 12 -65 70 -87 70 -10 0 -18 -4
-18 -9z"/>
<path d="M3850 5350 c0 -5 5 -10 10 -10 6 0 10 5 10 10 0 6 -4 10 -10 10 -5 0
-10 -4 -10 -10z"/>
<path d="M5873 5656 c15 -32 30 -34 25 -4 -2 13 -11 24 -20 26 -14 3 -15 0 -5
-22z"/>
<path d="M4063 4791 c-13 -16 -19 -32 -14 -35 13 -8 43 30 39 49 -2 13 -8 10
-25 -14z"/>
<path d="M5770 5595 c0 -13 4 -14 20 -5 11 6 20 13 20 15 0 3 -9 5 -20 5 -11
0 -20 -7 -20 -15z"/>
<path d="M5980 5389 c-14 -8 -7 -13 13 -10 5 1 7 -4 5 -11 -3 -7 -14 -14 -26
-16 -24 -4 -30 -22 -8 -22 29 0 46 13 46 35 0 28 -11 37 -30 24z"/>
<path d="M7677 5042 c-71 -64 -231 -165 -297 -188 -23 -8 -50 -23 -61 -33 -20
-19 -20 -19 12 -30 112 -39 381 26 508 123 40 30 23 35 -23 7 -41 -26 -200
-70 -306 -86 -47 -7 -86 -12 -88 -10 -2 1 30 21 71 43 46 26 109 74 168 130
105 100 118 137 16 44z"/>
<path d="M7163 4743 c-28 -11 -10 -18 45 -18 46 0 66 -6 102 -29 59 -39 176
-86 209 -85 24 1 23 2 -7 10 -20 6 -36 19 -42 33 -10 26 -29 36 -69 36 -15 0
-36 9 -46 20 -10 11 -34 24 -54 30 -37 10 -117 12 -138 3z"/>
<path d="M7470 4700 c0 -6 6 -10 14 -7 26 10 135 -11 193 -37 40 -19 60 -23
67 -16 8 8 6 14 -4 20 -52 33 -270 65 -270 40z"/>
<path d="M2096 5358 c-18 -26 -21 -48 -6 -48 6 0 10 5 10 12 0 6 7 19 16 29 9
10 11 19 5 23 -5 4 -17 -4 -25 -16z"/>
<path d="M2152 5293 c5 -25 28 -28 28 -4 0 12 -6 21 -16 21 -9 0 -14 -7 -12
-17z"/>
<path d="M1990 5027 c0 -16 32 -47 48 -47 7 0 12 7 12 15 0 9 -6 12 -15 9 -10
-4 -15 0 -15 15 0 12 -6 21 -15 21 -8 0 -15 -6 -15 -13z"/>
<path d="M5503 4984 c-26 -36 -38 -80 -25 -88 11 -6 55 89 50 106 -3 7 -14 -2
-25 -18z"/>
<path d="M3322 5157 c-19 -23 -32 -66 -22 -72 6 -4 10 0 10 7 0 7 9 24 20 38
11 14 20 28 20 33 0 11 -17 8 -28 -6z"/>
<path d="M3354 5089 c-10 -17 13 -36 27 -22 12 12 4 33 -11 33 -5 0 -12 -5
-16 -11z"/>
<path d="M3174 4915 c-7 -16 20 -65 36 -65 5 0 12 5 15 10 3 6 0 10 -8 10 -18
0 -33 33 -18 38 17 6 13 22 -4 22 -9 0 -18 -7 -21 -15z"/>
<path d="M1377 4903 c-12 -11 -8 -23 8 -23 8 0 15 7 15 15 0 16 -12 20 -23 8z"/>
<path d="M6220 4799 c-13 -24 -8 -34 14 -26 8 3 14 15 13 26 -2 27 -13 27 -27
0z"/>
<path d="M6340 4600 c0 -5 4 -10 9 -10 5 0 7 -10 4 -22 -4 -22 -4 -22 11 -5 8
11 12 25 9 33 -6 16 -33 19 -33 4z"/>
<path d="M5290 4500 c0 -5 5 -10 11 -10 5 0 7 5 4 10 -3 6 -8 10 -11 10 -2 0
-4 -4 -4 -10z"/>
<path d="M5280 4470 c0 -5 11 -17 25 -26 13 -9 40 -38 60 -65 46 -64 64 -63
28 2 -32 59 -113 123 -113 89z"/>
<path d="M1375 4124 l-28 -36 26 16 c14 10 28 24 31 33 12 29 -1 24 -29 -13z"/>
<path d="M2545 9060 c-22 -5 -81 -20 -130 -34 -49 -14 -141 -31 -205 -37 -135
-12 -151 -16 -130 -29 19 -12 167 -13 174 -1 4 5 25 12 49 16 23 4 80 18 127
32 47 14 99 28 117 30 18 3 38 11 44 19 13 15 12 15 -46 4z"/>
<path d="M6724 8842 c-17 -15 -39 -32 -50 -38 -10 -7 -16 -15 -12 -19 4 -4 20
2 36 14 17 12 32 21 35 21 8 0 -14 -94 -25 -107 -6 -7 -18 -13 -27 -13 -10 0
-26 -7 -37 -16 -18 -14 -16 -15 21 -9 22 4 45 10 50 14 6 4 26 14 45 21 19 8
67 33 107 57 39 24 75 43 78 43 4 0 5 -11 3 -25 -7 -34 10 -32 18 3 3 15 8 35
11 45 6 24 -7 21 -48 -9 -33 -25 -162 -94 -175 -94 -3 0 -3 12 1 28 12 50 17
112 9 112 -5 0 -23 -13 -40 -28z"/>
<path d="M1963 8240 c6 -22 14 -40 17 -40 11 0 -2 59 -15 70 -10 8 -10 2 -2
-30z"/>
<path d="M1320 8209 c0 -34 136 -156 274 -246 87 -57 89 -40 8 54 -82 95 -142
147 -201 177 -54 28 -81 33 -81 15z"/>
<path d="M2024 8138 c4 -13 9 -35 12 -50 4 -16 10 -28 15 -28 5 0 9 -11 9 -24
0 -14 5 -28 10 -31 6 -3 10 -35 10 -71 0 -45 6 -78 20 -106 11 -23 20 -48 20
-55 0 -23 24 -93 32 -93 5 0 8 3 8 8 -2 18 -26 102 -33 108 -4 4 -7 16 -7 26
0 10 -4 18 -10 18 -6 0 -10 27 -10 62 0 63 -55 257 -74 258 -4 0 -5 -10 -2
-22z"/>
<path d="M5510 7910 c-11 -8 -7 -9 15 -4 37 8 45 14 19 14 -10 0 -26 -5 -34
-10z"/>
<path d="M5435 7890 c-8 -13 5 -13 25 0 13 8 13 10 -2 10 -9 0 -20 -4 -23 -10z"/>
<path d="M5815 7890 c-3 -6 1 -7 9 -4 18 7 21 14 7 14 -6 0 -13 -4 -16 -10z"/>
<path d="M5050 7816 c0 -2 8 -10 18 -17 15 -13 16 -12 3 4 -13 16 -21 21 -21
13z"/>
<path d="M5858 7803 c7 -3 16 -2 19 1 4 3 -2 6 -13 5 -11 0 -14 -3 -6 -6z"/>
<path d="M7709 7741 c-53 -34 -156 -138 -146 -147 7 -7 119 63 190 118 70 56
35 80 -44 29z"/>
<path d="M6199 7743 c-13 -17 -13 -17 6 -3 11 8 22 16 24 17 2 2 0 3 -6 3 -6
0 -17 -8 -24 -17z"/>
<path d="M5478 7673 c6 -2 18 -2 25 0 6 3 1 5 -13 5 -14 0 -19 -2 -12 -5z"/>
<path d="M4532 7630 c0 -19 2 -27 5 -17 2 9 2 25 0 35 -3 9 -5 1 -5 -18z"/>
<path d="M5520 7610 c-18 -12 -2 -12 25 0 13 6 15 9 5 9 -8 0 -22 -4 -30 -9z"/>
<path d="M1274 7509 c-3 -6 -2 -15 2 -19 16 -16 371 -100 422 -100 17 0 23 5
20 17 -4 19 -78 52 -205 88 -91 27 -226 34 -239 14z"/>
<path d="M7810 7309 c-41 -11 -125 -44 -186 -73 -102 -49 -133 -70 -122 -82 3
-2 65 9 139 25 74 16 166 35 206 41 126 20 202 76 138 100 -39 15 -90 11 -175
-11z"/>
<path d="M5248 7263 c7 -3 16 -2 19 1 4 3 -2 6 -13 5 -11 0 -14 -3 -6 -6z"/>
<path d="M5408 7233 c7 -3 16 -2 19 1 4 3 -2 6 -13 5 -11 0 -14 -3 -6 -6z"/>
<path d="M4866 7191 c-4 -5 3 -7 14 -4 23 6 26 13 6 13 -8 0 -17 -4 -20 -9z"/>
<path d="M1634 6763 c7 -54 71 -197 84 -189 19 11 -16 161 -49 215 -25 39 -42
26 -35 -26z"/>
<path d="M2260 6750 c0 -33 15 -41 22 -12 6 21 -1 42 -13 42 -5 0 -9 -13 -9
-30z"/>
<path d="M1074 6695 c-14 -35 121 -191 239 -276 83 -60 47 7 -96 176 -91 108
-130 135 -143 100z"/>
<path d="M2260 6640 c0 -22 5 -40 10 -40 6 0 10 18 10 40 0 22 -4 40 -10 40
-5 0 -10 -18 -10 -40z"/>
<path d="M7446 6528 c-59 -80 -107 -182 -75 -163 23 15 129 159 129 176 0 29
-26 22 -54 -13z"/>
<path d="M1600 6370 c0 -43 16 -78 68 -147 63 -84 77 -81 45 10 -41 115 -113
203 -113 137z"/>
<path d="M8048 6353 c-110 -73 -239 -203 -202 -203 10 0 153 80 229 128 76 48
95 66 95 94 0 32 -58 23 -122 -19z"/>
<path d="M3530 6243 c1 -18 122 -133 140 -133 20 0 9 21 -32 66 -48 52 -109
89 -108 67z"/>
<path d="M5469 6133 c-8 -21 -6 -46 7 -100 18 -76 27 -89 38 -50 8 29 8 141 0
161 -10 25 -33 19 -45 -11z"/>
<path d="M1390 6137 c0 -26 60 -84 120 -116 33 -18 65 -31 71 -29 17 6 -146
158 -170 158 -11 0 -21 -6 -21 -13z"/>
<path d="M7366 6103 c-52 -53 -112 -143 -95 -143 17 0 144 97 179 136 34 40
32 54 -10 54 -20 0 -41 -13 -74 -47z"/>
<path d="M5262 6028 c-19 -19 -14 -41 17 -89 50 -74 69 -95 80 -84 6 7 -1 37
-20 88 -31 79 -56 106 -77 85z"/>
<path d="M8187 6006 c-129 -57 -251 -135 -235 -151 2 -3 61 13 129 34 68 22
159 47 202 57 51 11 88 25 105 40 26 23 27 24 8 39 -35 27 -121 19 -209 -19z"/>
<path d="M1020 5997 c0 -21 60 -73 118 -102 77 -38 93 -29 41 22 -68 69 -159
115 -159 80z"/>
<path d="M860 5688 c1 -59 66 -89 208 -96 56 -2 102 -2 102 2 0 15 -259 116
-297 116 -7 0 -13 -10 -13 -22z"/>
<path d="M8125 5560 c-3 -5 14 -14 37 -20 24 -6 66 -18 95 -26 28 -8 78 -16
109 -17 47 -2 59 1 62 14 2 11 -11 24 -41 38 -36 17 -62 21 -150 21 -58 0
-108 -4 -112 -10z"/>
<path d="M7355 5360 c10 -35 25 -49 25 -23 0 11 -7 27 -16 34 -15 12 -16 11
-9 -11z"/>
<path d="M7306 5323 c-9 -9 -7 -33 3 -33 12 0 22 28 12 34 -5 3 -11 3 -15 -1z"/>
<path d="M6811 5118 c-1 -15 4 -30 9 -33 12 -7 12 12 0 40 -8 18 -9 17 -9 -7z"/>
<path d="M3670 4646 c0 -7 7 -19 15 -26 8 -7 18 -30 21 -52 4 -21 11 -41 17
-45 17 -11 -2 78 -24 108 -23 32 -29 36 -29 15z"/>
<path d="M3750 4496 c0 -2 7 -20 15 -39 8 -20 15 -59 15 -87 0 -28 4 -49 9
-46 10 7 3 119 -10 154 -7 18 -29 32 -29 18z"/>
<path d="M2150 4471 c-61 -24 -82 -36 -170 -103 -72 -54 -186 -165 -226 -219
-10 -15 -66 -84 -122 -153 -57 -70 -102 -129 -100 -131 1 -2 80 78 173 178
286 306 340 356 436 404 85 43 91 56 9 24z"/>
<path d="M7151 4260 c1 -8 5 -26 9 -40 l8 -25 1 25 c0 14 -4 32 -9 40 -9 13
-10 13 -9 0z"/>
<path d="M2003 4191 c-107 -85 -178 -167 -286 -327 -29 -43 -34 -70 -14 -77
25 -8 81 51 162 172 46 69 111 159 145 199 34 39 57 72 52 72 -6 0 -32 -17
-59 -39z"/>
<path d="M2695 4123 c-25 -26 -58 -68 -72 -93 -14 -25 -43 -74 -64 -110 -43
-75 -64 -139 -49 -154 7 -7 10 -5 10 3 0 7 16 38 35 69 19 32 41 78 49 104 14
47 80 149 125 194 13 13 22 27 19 30 -4 3 -27 -16 -53 -43z"/>
<path d="M8184 3824 c3 -9 6 -18 6 -20 0 -2 5 -4 10 -4 6 0 10 9 10 20 0 12
-7 20 -16 20 -11 0 -14 -5 -10 -16z"/>
<path d="M6567 3563 c-4 -3 -7 -12 -7 -20 0 -15 95 -19 104 -4 11 17 -82 40
-97 24z"/>
</g>
</svg>
