<svg xmlns="http://www.w3.org/2000/svg" viewBox="0 0 720 380" role="img" aria-label="NFHS-5 internet usage by caste" font-family="-apple-system,Helvetica Neue,Inter,sans-serif"><rect x="0" y="0" width="720" height="380" fill="#fbfaf6"/><rect x="0" y="0" width="6" height="380" fill="#e6447b"/><text x="20" y="30" font-size="17" font-weight="800" fill="#111" font-family="-apple-system,Helvetica Neue,Inter,sans-serif">The caste cut: who gets to use the internet</text><text x="20" y="52" font-size="12" fill="#444" font-family="-apple-system,Helvetica Neue,Inter,sans-serif">NFHS-5 (2019–21) · % of adults age 15–49 who have ever used the internet · India total</text><rect x="230" y="80.0" width="420" height="57.5" fill="#f4f0e3" opacity="0.55"/><rect x="230" y="195.0" width="420" height="57.5" fill="#f4f0e3" opacity="0.55"/><line x1="230.0" y1="80" x2="230.0" y2="310" stroke="#cdc7b6" stroke-width="0.7" stroke-dasharray="2,3"/><text x="230.0" y="326" font-size="10" fill="#777" text-anchor="middle">0%</text><line x1="335.0" y1="80" x2="335.0" y2="310" stroke="#cdc7b6" stroke-width="0.7" stroke-dasharray="2,3"/><text x="335.0" y="326" font-size="10" fill="#777" text-anchor="middle">20%</text><line x1="440.0" y1="80" x2="440.0" y2="310" stroke="#cdc7b6" stroke-width="0.7" stroke-dasharray="2,3"/><text x="440.0" y="326" font-size="10" fill="#777" text-anchor="middle">40%</text><line x1="545.0" y1="80" x2="545.0" y2="310" stroke="#cdc7b6" stroke-width="0.7" stroke-dasharray="2,3"/><text x="545.0" y="326" font-size="10" fill="#777" text-anchor="middle">60%</text><line x1="650.0" y1="80" x2="650.0" y2="310" stroke="#cdc7b6" stroke-width="0.7" stroke-dasharray="2,3"/><text x="650.0" y="326" font-size="10" fill="#777" text-anchor="middle">80%</text><line x1="404.825" y1="72" x2="404.825" y2="310" stroke="#e6447b" stroke-width="1.2" stroke-dasharray="4,3" opacity="0.7"/><text x="404.825" y="68" font-size="10" fill="#e6447b" text-anchor="middle" font-weight="700">Women avg 33.3%</text><line x1="498.8" y1="72" x2="498.8" y2="310" stroke="#2864b8" stroke-width="1.2" stroke-dasharray="4,3" opacity="0.7"/><text x="498.8" y="68" font-size="10" fill="#2864b8" text-anchor="middle" font-weight="700">Men avg 51.2%</text><circle cx="30" cy="108.75" r="4" fill="#1d4e3e"/><text x="220" y="112.75" font-size="12.5" fill="#222" text-anchor="end" font-weight="700" font-family="-apple-system,Helvetica Neue,Inter,sans-serif">Scheduled Tribe (ST)</text><rect x="230" y="87.05" width="108.15" height="20.7" fill="#e6447b" rx="2" ry="2"/><text x="343.15" y="105.75" font-size="11" fill="#e6447b" font-weight="800">20.6%</text><rect x="230" y="109.75" width="203.175" height="20.7" fill="#2864b8" rx="2" ry="2"/><text x="438.175" y="128.45" font-size="11" fill="#2864b8" font-weight="800">38.7%</text><text x="656" y="112.75" font-size="11" fill="#1d4e3e" font-weight="800">+18.1pp</text><circle cx="30" cy="166.25" r="4" fill="#a44e1f"/><text x="220" y="170.25" font-size="12.5" fill="#222" text-anchor="end" font-weight="700" font-family="-apple-system,Helvetica Neue,Inter,sans-serif">Scheduled Caste (SC)</text><rect x="230" y="144.55" width="141.75" height="20.7" fill="#e6447b" rx="2" ry="2"/><text x="376.75" y="163.25" font-size="11" fill="#e6447b" font-weight="800">27.0%</text><rect x="230" y="167.25" width="247.275" height="20.7" fill="#2864b8" rx="2" ry="2"/><text x="482.275" y="185.95" font-size="11" fill="#2864b8" font-weight="800">47.1%</text><text x="656" y="170.25" font-size="11" fill="#a44e1f" font-weight="800">+20.1pp</text><circle cx="30" cy="223.75" r="4" fill="#c69414"/><text x="220" y="227.75" font-size="12.5" fill="#222" text-anchor="end" font-weight="700" font-family="-apple-system,Helvetica Neue,Inter,sans-serif">Other Backward Class (OBC)</text><rect x="230" y="202.05" width="174.825" height="20.7" fill="#e6447b" rx="2" ry="2"/><text x="409.825" y="220.75" font-size="11" fill="#e6447b" font-weight="800">33.3%</text><rect x="230" y="224.75" width="276.15" height="20.7" fill="#2864b8" rx="2" ry="2"/><text x="511.15" y="243.45" font-size="11" fill="#2864b8" font-weight="800">52.6%</text><text x="656" y="227.75" font-size="11" fill="#c69414" font-weight="800">+19.3pp</text><circle cx="30" cy="281.25" r="4" fill="#5b3a8a"/><text x="220" y="285.25" font-size="12.5" fill="#222" text-anchor="end" font-weight="700" font-family="-apple-system,Helvetica Neue,Inter,sans-serif">Other ("general" caste)</text><rect x="230" y="259.55" width="232.04999999999998" height="20.7" fill="#e6447b" rx="2" ry="2"/><text x="467.04999999999995" y="278.25" font-size="11" fill="#e6447b" font-weight="800">44.2%</text><rect x="230" y="282.25" width="296.09999999999997" height="20.7" fill="#2864b8" rx="2" ry="2"/><text x="531.0999999999999" y="300.95" font-size="11" fill="#2864b8" font-weight="800">56.4%</text><text x="656" y="285.25" font-size="11" fill="#5b3a8a" font-weight="800">+12.2pp</text><rect x="20" y="347" width="14" height="11" fill="#e6447b" rx="2" ry="2"/><text x="40" y="357" font-size="11" fill="#444" font-weight="600">women 15–49</text><rect x="150" y="347" width="14" height="11" fill="#2864b8" rx="2" ry="2"/><text x="170" y="357" font-size="11" fill="#444" font-weight="600">men 15–49</text><text x="270" y="357" font-size="11" fill="#666" font-style="italic">right column = within-caste gender gap (pp)</text><text x="700" y="357" font-size="10" fill="#888" text-anchor="end">NFHS-5 India Report (FR375), Table 3.6, p.101</text></svg>