<svg xmlns="http://www.w3.org/2000/svg" viewBox="0 0 640 760" role="img" aria-label="Internet access gender gap by state, NFHS-5" font-family="-apple-system,Helvetica Neue,Inter,sans-serif"><rect x="0" y="0" width="640" height="760" fill="#fbfaf6"/><rect x="0" y="0" width="6" height="760" fill="#7e2367"/><text x="20" y="28" font-size="16" font-weight="800" fill="#111" font-family="-apple-system,Helvetica Neue,Inter,sans-serif">Internet access gender gap by state, NFHS-5</text><text x="20" y="48" font-size="12" fill="#444" font-family="-apple-system,Helvetica Neue,Inter,sans-serif">Men − women, percentage points · max +30.9pp (Telangana) · min +1.5pp (Sikkim) · the men-only frontier</text><g transform="translate(0,30)"><path d="M554.3,674.6L556.5,679.7L553.9,684.9L550.3,677.0L554.3,674.6ZM544.4,657.9L546.1,661.2L543.1,659.9L544.4,657.9ZM531.8,632.1L532.8,634.3L530.7,634.6L531.8,632.1ZM526.1,597.0L527.2,603.8L523.3,604.8L523.1,599.5L526.1,597.0ZM528.7,584.0L529.8,587.0L527.9,587.5L528.7,584.0ZM530.0,568.6L531.8,572.6L529.6,577.5L531.9,575.7L530.2,584.7L526.0,576.8L530.0,568.6ZM531.6,567.0L534.0,568.0L531.4,572.3L531.6,567.0ZM534.2,554.2L535.7,563.1L534.5,565.0L531.9,563.7L534.1,566.8L530.4,567.2L530.5,556.1L534.2,554.2ZM537.0,540.2L538.3,545.3L535.3,545.1L537.8,546.6L537.1,550.7L534.1,551.2L533.0,555.0L533.0,543.9L537.0,540.2Z" fill="#fde0ef" stroke="#fbfaf6" stroke-width="0.7" stroke-linejoin="round"><title>Andaman and Nicobar Islands: women 34.8%, men 46.5%, gap +11.7pp</title></path><path d="M207.8,490.4L207.3,483.5L209.5,481.6L201.9,478.8L206.8,476.4L207.5,467.4L205.0,462.9L211.5,457.1L206.3,455.2L210.8,447.0L208.5,445.2L208.2,437.0L216.9,428.9L213.0,424.5L215.2,418.7L221.8,420.1L222.0,416.4L224.7,415.5L224.7,405.8L236.1,409.0L238.4,413.4L243.2,415.4L244.6,412.1L249.4,414.6L256.0,412.5L260.0,416.6L257.6,422.9L258.7,429.2L274.0,435.3L276.2,442.7L281.2,442.8L282.5,450.8L298.6,449.5L294.0,452.2L291.2,459.5L279.8,463.3L278.2,467.0L272.5,464.6L268.5,466.2L268.2,468.2L273.0,469.1L272.5,472.6L264.5,466.6L260.8,469.5L259.7,475.2L255.8,473.3L245.0,476.9L244.0,483.7L237.8,484.5L234.6,488.3L226.8,487.1L220.5,492.4L207.8,490.4Z" fill="#7e2367" stroke="#fbfaf6" stroke-width="0.7" stroke-linejoin="round"><title>Telangana: women 26.5%, men 57.4%, gap +30.9pp</title></path><path d="M309.4,473.6L306.7,473.4L309.6,476.7L301.8,480.4L289.5,481.1L281.1,494.5L278.0,494.9L275.2,491.3L266.3,495.7L261.6,508.3L264.8,518.7L263.2,528.8L267.3,543.2L263.7,537.0L261.7,539.9L267.2,544.6L260.8,541.1L255.2,548.3L248.5,545.5L248.4,548.4L242.6,552.3L233.1,551.2L229.8,559.1L226.0,560.6L222.2,559.2L223.3,555.6L227.8,555.5L230.4,546.8L226.0,545.6L226.5,540.1L219.9,538.9L220.4,534.3L214.3,532.6L212.0,536.9L206.5,538.1L206.0,534.7L200.7,532.9L200.5,536.4L196.8,536.7L197.7,532.8L194.7,527.8L197.4,527.5L200.1,531.4L203.6,530.7L205.3,533.7L204.3,528.6L207.8,527.5L205.3,524.2L205.3,527.1L202.9,524.2L195.8,526.2L196.4,521.0L191.9,518.5L194.1,511.3L192.2,508.5L198.6,510.0L200.2,507.4L196.3,499.6L199.5,496.5L198.6,490.7L220.5,492.4L226.8,487.1L234.6,488.3L237.8,484.5L244.0,483.7L245.0,476.9L255.8,473.3L259.7,475.2L260.8,469.5L264.5,466.6L272.5,472.6L273.0,469.1L268.4,466.4L272.5,464.6L278.2,467.0L279.8,463.3L290.6,459.9L298.8,447.7L310.2,445.3L313.1,435.0L316.4,441.5L320.0,437.0L325.4,438.3L324.4,432.8L332.6,428.7L330.7,425.4L333.9,426.3L337.4,421.9L340.0,426.9L340.9,425.0L342.7,429.0L347.2,430.6L352.1,429.8L354.2,424.8L360.4,422.0L361.3,424.1L348.1,439.8L336.4,446.0L328.8,455.0L310.8,465.0L308.3,469.0L310.5,470.7L310.6,468.3L309.4,473.6Z" fill="#c93b8f" stroke="#fbfaf6" stroke-width="0.7" stroke-linejoin="round"><title>Andhra Pradesh: women 21.0%, men 48.8%, gap +27.8pp</title></path><path d="M603.3,204.9L605.1,208.0L608.3,207.6L602.4,211.4L603.5,215.0L611.1,211.3L613.0,217.7L605.6,225.5L608.5,226.9L614.1,224.3L629.7,230.0L627.7,232.6L629.4,236.4L619.0,242.3L624.3,253.3L613.1,247.5L602.1,250.5L594.3,257.8L583.8,262.1L582.9,254.5L589.7,249.7L597.7,249.9L600.4,247.6L596.8,246.3L594.9,239.9L599.5,234.9L591.6,235.1L567.3,243.6L562.9,241.8L554.1,253.8L546.7,256.7L529.1,254.6L517.4,257.7L515.5,245.3L505.8,243.0L507.5,239.4L505.6,237.2L513.4,240.3L519.6,237.2L527.0,238.0L530.8,234.5L529.7,231.6L541.0,227.1L543.5,220.6L556.0,220.0L562.1,211.2L570.9,205.6L574.5,209.5L587.5,212.3L595.3,205.5L601.7,203.2L603.3,204.9Z" fill="#f599c4" stroke="#fbfaf6" stroke-width="0.7" stroke-linejoin="round"><title>Arunachal Pradesh: women 52.9%, men 71.6%, gap +18.7pp</title></path><path d="M599.0,235.5L594.9,240.0L596.8,246.3L600.4,247.6L589.6,249.8L588.5,252.6L567.5,262.4L564.3,266.8L563.4,264.8L557.7,273.0L557.1,278.4L553.2,280.6L552.7,277.4L543.4,286.3L546.4,291.3L538.7,301.9L537.2,310.4L532.7,311.1L531.4,308.0L525.0,316.2L524.1,313.7L519.6,313.8L520.2,300.0L525.6,300.5L525.4,295.6L532.2,293.2L527.2,287.9L529.0,285.3L523.3,281.9L518.5,283.6L518.5,277.8L521.4,275.0L513.5,276.7L511.3,274.1L508.1,278.7L506.1,275.9L505.1,279.3L498.7,282.5L498.1,279.6L493.9,280.4L492.7,277.8L475.2,277.5L470.4,282.3L473.1,285.1L470.0,286.3L470.4,277.9L466.2,272.6L469.7,268.5L469.8,261.0L481.4,257.5L487.6,260.4L508.5,259.6L529.1,254.6L536.8,257.2L550.2,256.2L563.1,244.4L562.9,241.8L567.3,243.6L591.6,235.1L599.0,235.5Z" fill="#fde0ef" stroke="#fbfaf6" stroke-width="0.7" stroke-linejoin="round"><title>Assam: women 28.2%, men 42.3%, gap +14.1pp</title></path><path d="M348.0,244.5L358.6,248.3L359.1,254.4L370.8,258.3L371.2,260.6L380.2,258.2L384.7,264.6L394.9,263.5L403.4,267.7L410.7,264.2L411.1,267.1L416.4,269.3L428.0,266.3L431.0,268.9L435.2,264.9L436.2,269.5L426.1,278.3L431.3,283.2L431.8,287.7L425.6,288.4L426.8,293.6L421.4,290.5L419.1,293.7L415.9,293.1L412.2,297.3L410.1,306.2L400.7,306.2L397.5,311.3L388.9,302.5L382.3,301.6L380.8,306.7L368.5,311.0L364.5,311.2L362.3,307.8L355.9,313.0L351.7,307.1L347.8,308.9L345.3,305.5L334.8,307.9L331.6,293.6L342.0,288.6L347.4,282.6L358.8,282.4L346.5,274.5L345.6,271.7L348.8,271.5L349.1,268.7L343.4,267.1L347.2,263.0L354.2,263.3L350.6,258.4L346.5,257.7L343.8,248.7L341.8,248.6L348.0,244.5Z" fill="#c93b8f" stroke="#fbfaf6" stroke-width="0.7" stroke-linejoin="round"><title>Bihar: women 20.6%, men 43.6%, gap +23.0pp</title></path><path d="M331.2,317.0L339.0,322.9L340.7,327.6L345.6,326.9L346.2,337.4L353.4,342.9L345.5,349.4L345.5,353.7L337.4,357.3L336.6,364.8L331.3,372.2L332.8,375.3L330.0,374.8L328.3,379.8L316.5,379.5L312.8,386.4L310.4,385.2L311.3,402.7L318.0,404.1L318.1,407.1L315.4,408.8L315.5,406.8L310.2,407.5L307.9,404.0L300.3,402.9L299.8,405.9L304.3,408.5L303.5,414.5L306.9,416.3L308.1,427.0L300.6,432.6L301.9,434.5L297.6,439.0L293.0,440.9L290.0,450.5L282.6,450.9L281.2,442.8L276.2,442.7L276.0,437.7L265.7,430.4L268.0,429.0L266.3,425.4L268.7,420.1L272.6,416.6L276.5,419.1L279.5,415.3L272.1,407.8L269.0,408.3L272.2,402.5L268.7,398.8L273.7,396.8L270.2,379.1L274.9,376.4L275.8,367.6L279.8,359.1L281.9,360.0L284.1,352.1L294.9,350.1L301.7,338.6L306.2,337.3L307.0,333.4L301.2,329.0L294.7,329.5L294.8,321.0L314.0,323.7L320.0,319.9L326.9,321.4L331.2,317.0Z" fill="#7e2367" stroke="#fbfaf6" stroke-width="0.7" stroke-linejoin="round"><title>Chhattisgarh: women 26.7%, men 56.3%, gap +29.6pp</title></path><path d="M111.9,397.7L115.9,397.3L113.5,399.6L116.9,400.0L116.3,402.6L111.8,401.5L111.9,397.7Z" fill="#7e2367" stroke="#fbfaf6" stroke-width="0.7" stroke-linejoin="round"><title>Dadra and Nagar Haveli: women 36.7%, men 68.3%, gap +31.6pp</title></path><path d="M64.8,383.5L67.6,384.8L66.3,389.3L62.8,387.8L64.8,383.5Z" fill="#7e2367" stroke="#fbfaf6" stroke-width="0.7" stroke-linejoin="round"><title>Dadra and Nagar Haveli: women 36.7%, men 68.3%, gap +31.6pp</title></path><path d="M201.6,216.5L204.1,221.1L202.1,225.1L193.5,222.4L195.7,216.8L201.6,216.5Z" fill="#f599c4" stroke="#fbfaf6" stroke-width="0.7" stroke-linejoin="round"><title>Delhi: women 63.8%, men 85.2%, gap +21.4pp</title></path><path d="M130.8,493.5L133.4,497.1L138.7,496.1L140.6,503.8L137.8,511.6L134.2,511.7L128.7,501.3L131.1,501.2L126.5,494.7L130.8,493.5Z" fill="#fde0ef" stroke="#fbfaf6" stroke-width="0.7" stroke-linejoin="round"><title>Goa: women 73.7%, men 82.9%, gap +9.2pp</title></path><path d="M13.7,323.2L14.3,326.4L10.2,327.6L13.7,323.2ZM15.2,319.2L11.1,325.8L10.6,322.6L15.2,319.2ZM93.1,305.4L98.4,306.0L96.2,306.8L100.8,310.4L102.4,308.3L110.5,312.2L114.2,308.6L117.0,311.3L113.9,315.2L117.3,318.8L120.0,316.4L119.8,323.6L126.1,327.1L125.5,330.7L135.6,334.0L143.5,343.3L141.4,348.0L134.3,350.0L139.6,353.1L134.8,353.9L136.5,362.3L129.3,365.2L131.2,368.6L128.8,369.5L130.4,372.2L140.3,372.2L134.7,372.5L129.6,379.1L124.6,379.1L131.3,383.1L132.3,388.2L126.3,392.0L121.7,388.9L121.2,399.5L117.6,401.3L113.6,400.5L115.9,397.8L114.4,396.3L106.5,401.0L109.8,388.1L103.4,376.9L106.6,371.0L103.6,371.0L108.6,368.5L102.3,368.6L101.6,362.5L103.2,357.2L110.3,355.6L101.2,357.3L98.6,353.5L99.7,356.7L98.2,358.9L97.1,357.2L96.8,362.9L97.3,359.2L94.0,361.8L97.4,369.4L93.3,378.5L70.8,388.4L67.0,388.9L67.3,383.9L64.1,382.9L62.6,388.0L50.6,380.5L42.4,371.5L42.9,368.9L40.7,369.1L42.3,371.3L39.7,369.5L25.9,354.9L28.7,351.3L32.2,356.0L37.8,352.3L39.5,354.7L42.7,351.4L44.2,353.0L51.9,349.8L58.9,338.7L55.8,341.8L51.7,339.7L42.2,346.1L37.2,345.1L20.0,337.1L18.5,335.3L22.1,333.3L19.8,333.8L16.5,329.7L16.6,326.4L22.2,321.7L17.2,324.2L20.1,320.8L17.6,319.9L21.9,319.9L22.4,312.8L24.9,314.9L40.0,313.2L48.5,315.5L60.7,310.2L60.7,313.7L65.6,314.4L72.5,310.6L69.6,307.6L72.0,304.6L93.1,305.4Z" fill="#7e2367" stroke="#fbfaf6" stroke-width="0.7" stroke-linejoin="round"><title>Gujarat: women 30.8%, men 58.9%, gap +28.1pp</title></path><path d="M193.5,173.2L200.2,177.2L201.3,181.6L209.5,183.9L199.4,196.7L201.6,215.0L195.7,216.8L193.4,221.9L200.5,225.6L204.1,223.4L207.0,225.5L208.3,235.3L201.9,238.8L197.8,238.0L196.3,241.5L194.4,240.6L196.1,231.2L194.1,229.5L187.2,234.9L185.7,230.9L181.9,230.4L182.9,233.6L179.0,234.2L180.5,237.6L175.0,237.1L176.5,232.7L174.4,232.2L177.7,230.9L166.3,221.2L162.9,207.5L156.2,208.1L151.2,204.4L146.0,206.1L146.2,197.0L143.2,196.3L144.4,192.8L156.3,193.6L159.3,201.4L164.0,195.9L176.6,197.1L180.9,194.6L180.1,188.4L184.4,187.5L188.5,190.1L187.4,186.2L191.8,182.5L195.5,183.5L193.5,173.2Z" fill="#c93b8f" stroke="#fbfaf6" stroke-width="0.7" stroke-linejoin="round"><title>Haryana: women 48.4%, men 72.4%, gap +24.0pp</title></path><path d="M192.8,123.1L195.2,127.5L203.9,132.0L212.1,128.8L217.8,136.9L226.0,133.2L224.1,138.6L227.5,138.7L229.2,140.5L227.5,144.2L234.5,149.4L232.8,153.8L235.8,157.5L233.2,159.6L239.3,168.1L225.7,164.4L215.8,167.3L211.6,175.5L214.2,180.5L208.9,183.6L199.6,180.2L200.2,177.2L188.7,170.5L189.2,166.0L183.4,161.2L179.4,164.1L173.5,150.4L166.8,147.6L174.4,140.4L171.2,130.4L175.5,130.3L184.1,124.2L192.8,123.1Z" fill="#f599c4" stroke="#fbfaf6" stroke-width="0.7" stroke-linejoin="round"><title>Himachal Pradesh: women 49.7%, men 67.9%, gap +18.2pp</title></path><path d="M216.0,76.7L220.5,75.6L218.0,78.4L223.4,92.2L239.0,99.9L233.2,105.4L233.2,114.3L241.0,123.3L248.1,124.4L246.9,128.6L250.9,136.5L238.9,142.1L234.7,139.3L234.0,134.6L224.8,139.3L226.0,133.2L217.8,136.9L212.1,128.8L203.9,132.0L195.2,127.5L192.3,122.7L184.1,124.2L174.6,130.6L171.7,129.7L174.1,135.7L165.1,143.5L156.1,139.1L148.1,139.1L148.1,131.6L144.6,133.7L140.7,127.8L133.6,124.0L137.3,118.5L132.4,112.9L138.9,107.5L130.8,105.9L132.8,101.3L128.3,99.1L132.5,92.2L141.3,89.9L170.4,96.0L185.8,90.1L190.2,90.8L191.6,87.3L196.9,87.0L214.4,75.1L216.0,76.7Z" fill="#7e2367" stroke="#fbfaf6" stroke-width="0.7" stroke-linejoin="round"><title>Jammu and Kashmir: women 43.3%, men 72.0%, gap +28.7pp</title></path><path d="M421.8,291.2L425.7,292.6L429.7,300.1L426.4,302.8L428.4,306.5L425.4,306.7L423.7,315.9L419.5,316.6L418.8,319.5L414.1,318.2L414.2,322.8L404.7,322.7L404.7,325.7L397.2,326.9L394.2,331.4L388.9,327.9L384.9,330.7L386.1,337.5L399.3,340.6L396.7,345.0L404.0,349.4L406.6,356.2L397.1,355.1L388.7,349.5L385.9,362.2L382.8,361.7L383.7,359.1L375.0,358.1L371.5,361.5L366.2,359.7L369.1,355.3L368.0,351.4L351.6,354.3L345.5,350.5L353.7,341.6L348.6,341.1L346.2,337.4L345.6,326.9L340.7,327.6L339.0,322.9L331.1,316.9L332.6,308.4L345.3,305.5L347.8,308.9L351.7,307.1L355.9,313.0L362.3,307.8L364.5,311.2L368.5,311.0L380.8,306.7L382.3,301.6L388.9,302.5L397.5,311.3L400.7,306.2L410.1,306.2L412.8,296.5L421.8,291.2Z" fill="#c93b8f" stroke="#fbfaf6" stroke-width="0.7" stroke-linejoin="round"><title>Jharkhand: women 31.4%, men 58.0%, gap +26.6pp</title></path><path d="M204.1,437.1L204.6,439.8L209.7,440.4L208.5,445.2L210.8,447.0L206.3,455.2L211.5,457.0L205.0,462.9L207.5,467.4L206.8,476.4L201.9,478.8L209.5,482.6L207.3,483.5L207.8,490.4L200.8,489.8L197.4,492.3L199.6,496.0L196.3,499.6L200.4,506.6L198.6,510.0L192.2,508.5L194.1,511.3L191.9,518.5L196.4,521.0L195.8,526.2L199.2,526.7L200.2,524.0L205.1,527.1L205.1,524.3L207.5,525.7L207.6,528.0L204.3,528.6L205.4,533.7L203.6,530.7L200.1,531.4L197.4,527.5L194.7,527.8L197.7,532.8L196.8,536.7L200.5,536.4L200.7,532.9L206.0,534.7L207.1,538.0L217.7,532.3L217.0,535.0L220.6,534.6L219.9,538.9L226.5,540.1L226.0,545.6L230.4,546.8L227.8,555.5L225.5,553.9L222.8,557.7L214.5,555.4L212.5,559.5L209.5,559.7L210.1,565.0L206.8,569.3L212.4,570.1L211.1,574.9L207.2,575.1L205.8,578.9L194.8,578.2L193.5,582.6L184.4,580.7L178.0,576.8L178.0,574.2L172.9,574.8L163.4,567.5L161.5,561.2L151.7,557.6L141.5,519.6L135.3,514.2L139.1,510.7L140.6,503.8L138.7,496.1L135.4,495.8L141.1,493.6L143.3,487.9L141.1,487.6L143.9,486.6L139.2,477.2L143.4,474.8L145.5,477.1L148.0,475.9L148.1,473.6L152.9,472.4L153.2,468.8L159.1,470.9L160.7,468.5L168.8,468.4L168.0,457.4L174.3,460.7L183.8,460.9L182.8,454.9L186.9,451.5L190.4,453.1L191.5,448.5L195.2,448.1L196.0,442.4L199.3,443.1L204.1,437.1Z" fill="#c93b8f" stroke="#fbfaf6" stroke-width="0.7" stroke-linejoin="round"><title>Karnataka: women 35.0%, men 62.4%, gap +27.4pp</title></path><path d="M154.4,556.9L163.3,563.1L163.4,567.5L166.8,570.4L184.4,578.8L185.0,581.4L180.5,582.9L180.8,585.1L187.2,587.4L185.3,591.0L191.1,590.4L192.6,593.9L189.5,596.4L194.8,599.7L193.1,609.8L196.3,611.6L201.7,608.8L200.2,624.4L205.4,626.7L199.8,637.0L202.6,647.0L200.3,651.8L187.3,639.3L180.8,616.8L183.1,622.2L183.6,619.9L183.3,626.1L185.9,626.4L183.7,618.9L180.1,612.9L180.5,616.5L172.7,591.9L160.2,573.5L163.1,570.7L158.8,573.5L151.7,557.7L154.4,556.9Z" fill="#fde0ef" stroke="#fbfaf6" stroke-width="0.7" stroke-linejoin="round"><title>Kerala: women 61.1%, men 76.1%, gap +15.0pp</title></path><path d="M225.9,258.2L239.2,262.1L242.2,269.3L234.0,282.0L235.2,284.6L227.3,285.9L224.4,289.9L227.6,295.1L221.6,300.9L226.3,313.3L228.9,310.7L235.0,315.3L238.7,311.6L236.9,305.5L234.1,306.2L234.7,301.8L230.2,292.4L227.2,291.7L232.0,288.4L234.4,290.3L233.7,287.2L235.9,288.7L237.0,286.0L238.9,289.9L234.8,291.4L236.0,293.0L238.4,290.5L236.8,294.4L239.5,292.0L239.8,294.8L245.2,295.3L245.8,290.7L249.8,292.1L247.8,295.5L257.4,295.8L257.3,292.8L266.0,288.8L269.6,294.2L267.3,297.8L273.2,294.6L277.1,296.6L275.4,295.0L279.2,293.7L277.6,299.0L284.6,300.2L287.5,294.3L292.1,296.3L293.8,293.7L294.6,296.6L300.9,297.7L302.1,301.5L307.2,301.6L309.3,306.1L317.0,304.2L319.9,306.4L317.0,316.2L320.2,319.9L316.4,322.5L294.5,321.4L296.4,325.0L294.7,329.5L301.2,329.0L307.0,333.4L306.2,337.3L301.7,338.6L294.9,350.1L284.1,352.1L281.9,360.0L279.8,359.1L275.8,367.6L274.7,375.6L269.1,374.7L266.1,369.6L250.8,371.2L249.7,368.4L244.2,367.4L237.5,370.1L237.9,372.4L227.3,372.1L226.2,369.6L216.9,374.5L209.4,375.0L205.8,371.4L209.8,371.2L208.5,367.8L203.0,366.5L192.6,370.0L189.0,378.6L179.4,380.9L177.8,374.8L159.2,374.0L152.5,369.3L145.2,368.2L142.8,360.9L136.4,362.5L134.8,353.9L139.6,353.1L134.3,350.0L141.4,348.0L143.5,343.3L140.2,339.0L149.1,335.8L144.3,333.3L153.3,326.9L154.4,318.4L152.3,313.5L149.3,313.1L151.5,309.2L148.4,308.2L150.3,302.2L152.3,305.2L155.0,302.7L151.3,302.3L151.0,298.6L155.5,300.8L157.9,296.9L161.9,297.0L160.1,300.2L163.4,300.8L158.9,299.8L159.1,303.8L172.3,303.6L173.8,309.4L170.0,310.5L172.2,317.5L169.4,319.7L165.4,318.0L164.2,320.8L166.9,323.3L175.2,320.5L179.7,312.0L180.3,314.5L187.0,315.6L190.4,313.0L190.6,315.4L194.8,316.3L193.0,307.7L196.2,309.3L198.3,307.0L192.7,301.7L195.9,300.6L193.9,297.6L205.4,295.5L204.6,289.1L192.1,291.2L187.7,288.5L186.0,282.6L199.6,271.6L225.9,258.2Z" fill="#7e2367" stroke="#fbfaf6" stroke-width="0.7" stroke-linejoin="round"><title>Madhya Pradesh: women 26.9%, men 55.7%, gap +28.8pp</title></path><path d="M142.6,360.8L145.8,368.6L152.5,369.3L160.9,374.5L177.8,374.8L178.6,380.0L181.7,381.1L189.0,378.6L192.6,370.0L203.0,366.5L208.5,367.8L209.8,371.2L205.8,371.4L209.4,375.0L216.9,374.5L226.2,369.6L227.3,372.1L237.9,372.4L237.5,370.1L244.2,367.4L249.7,368.4L250.8,371.2L266.1,369.6L269.1,374.7L274.9,376.2L269.8,380.6L273.7,396.8L268.7,398.8L272.2,402.5L269.0,408.3L272.1,407.8L279.5,415.3L276.5,419.1L272.6,416.6L270.7,418.0L266.3,425.4L267.9,429.1L262.9,432.0L258.3,428.7L260.0,416.6L256.0,412.5L249.4,414.6L244.6,412.1L243.2,415.4L238.4,413.4L236.1,409.0L224.7,405.8L224.7,415.5L222.0,416.4L221.8,420.1L215.2,418.7L213.0,424.5L216.9,428.9L212.6,434.6L209.6,434.7L209.1,439.8L204.6,439.8L203.7,436.7L199.3,443.1L196.0,442.4L195.2,448.1L191.5,448.5L190.4,453.1L186.9,451.5L182.8,454.9L183.8,460.9L174.3,460.7L168.0,457.4L168.8,468.4L160.7,468.5L159.1,470.9L153.2,468.8L152.9,472.4L148.1,473.6L148.0,475.9L145.5,477.1L143.4,474.8L139.1,477.3L140.4,483.1L144.2,484.5L141.1,487.6L143.3,487.9L141.1,493.6L133.9,497.2L130.6,493.1L126.5,494.6L118.8,477.9L118.9,466.7L110.6,441.7L114.0,443.1L114.0,439.4L110.3,438.8L109.0,431.6L112.8,425.1L111.3,423.9L108.0,427.4L108.7,419.5L107.5,421.0L104.7,407.0L109.4,399.1L116.0,402.8L121.2,399.6L121.8,388.8L126.3,392.0L132.3,388.2L131.3,383.1L124.6,379.1L129.6,379.1L132.3,374.2L140.4,371.3L130.4,372.2L129.3,365.2L142.6,360.8Z" fill="#c93b8f" stroke="#fbfaf6" stroke-width="0.7" stroke-linejoin="round"><title>Maharashtra: women 38.0%, men 61.5%, gap +23.5pp</title></path><path d="M569.8,284.1L569.4,287.0L572.0,288.1L570.0,293.3L573.3,297.3L561.0,322.2L535.8,316.6L538.7,301.9L544.9,292.3L549.2,293.6L554.1,285.9L564.1,287.4L569.8,284.1Z" fill="#7e2367" stroke="#fbfaf6" stroke-width="0.7" stroke-linejoin="round"><title>Manipur: women 44.8%, men 73.9%, gap +29.1pp</title></path><path d="M512.0,274.4L513.5,276.7L521.5,275.0L518.5,277.8L518.5,283.6L523.3,281.9L529.0,285.3L527.2,287.9L532.2,293.3L524.2,297.2L516.7,293.8L482.3,294.8L469.2,291.6L470.0,286.3L473.1,285.0L470.5,282.1L475.2,277.5L492.7,277.8L493.9,280.4L498.1,279.6L498.7,282.5L505.1,279.3L506.1,275.9L508.1,278.7L512.0,274.4Z" fill="#fde0ef" stroke="#fbfaf6" stroke-width="0.7" stroke-linejoin="round"><title>Meghalaya: women 34.7%, men 42.1%, gap +7.4pp</title></path><path d="M532.1,310.2L536.9,310.8L535.8,316.6L543.5,317.9L545.8,325.8L544.7,337.3L542.7,340.2L539.2,339.3L540.8,356.0L534.5,362.6L530.4,358.3L528.1,362.0L520.6,323.0L521.4,313.7L525.0,316.2L531.4,308.0L532.1,310.2Z" fill="#fde0ef" stroke="#fbfaf6" stroke-width="0.7" stroke-linejoin="round"><title>Mizoram: women 67.6%, men 79.7%, gap +12.1pp</title></path><path d="M583.3,256.8L583.8,262.1L580.2,267.0L582.7,274.9L576.8,285.8L571.0,288.0L569.7,283.1L564.2,287.4L554.1,285.9L549.3,293.5L547.1,292.7L543.4,286.3L552.7,277.4L553.2,280.6L557.1,278.4L557.7,273.0L563.4,264.8L564.3,266.8L577.2,256.5L582.9,254.5L583.3,256.8Z" fill="#fde0ef" stroke="#fbfaf6" stroke-width="0.7" stroke-linejoin="round"><title>Nagaland: women 49.9%, men 64.6%, gap +14.7pp</title></path><path d="M406.3,387.6L409.1,388.7L404.3,390.2L406.3,387.6ZM389.5,350.2L408.4,359.8L409.7,364.4L414.1,362.5L414.8,365.7L419.0,367.3L419.3,369.8L411.3,371.7L405.3,378.6L408.4,386.5L403.9,390.9L410.0,388.9L403.4,393.8L404.2,396.9L397.6,400.5L399.7,399.7L396.1,404.4L393.1,402.8L395.6,404.9L375.5,411.9L361.9,422.8L354.2,424.8L352.1,429.8L343.0,429.3L337.4,421.9L333.9,426.3L330.7,425.4L332.6,428.7L324.4,432.8L325.4,438.4L320.0,437.0L316.3,441.5L313.1,435.0L308.7,446.6L303.5,445.1L290.0,450.4L293.0,440.9L297.6,439.0L301.9,434.5L300.6,432.6L308.1,427.0L306.9,416.3L303.5,414.5L304.3,408.5L299.8,405.9L300.2,403.2L307.9,404.0L310.2,407.5L317.9,407.5L318.0,404.1L311.3,402.7L310.4,385.2L312.8,386.4L316.5,379.5L326.8,380.6L330.0,374.8L332.8,375.3L331.3,372.2L336.6,364.8L337.5,357.1L345.5,353.7L345.3,350.3L351.6,354.3L368.0,351.4L369.1,355.3L366.4,359.9L371.5,361.5L374.4,358.2L383.7,359.1L382.8,361.7L385.9,362.2L388.8,355.0L387.0,351.4L389.5,350.2Z" fill="#c93b8f" stroke="#fbfaf6" stroke-width="0.7" stroke-linejoin="round"><title>Odisha: women 24.9%, men 50.7%, gap +25.8pp</title></path><path d="M255.3,595.2L257.5,595.3L257.4,598.8L255.3,595.2ZM254.0,573.6L257.1,574.9L256.4,577.7L253.4,576.5L254.0,573.6ZM162.5,570.5L160.8,574.7L159.2,571.5L162.5,570.5Z" fill="#f599c4" stroke="#fbfaf6" stroke-width="0.7" stroke-linejoin="round"><title>Puducherry: women 61.9%, men 80.7%, gap +18.8pp</title></path><path d="M173.0,139.0L174.3,140.5L167.7,144.4L166.8,147.6L173.5,150.4L179.4,164.1L183.4,161.2L189.0,165.8L188.7,170.5L193.7,175.0L190.4,176.0L194.0,177.4L195.4,183.6L191.8,182.5L187.4,186.2L188.5,190.1L184.4,187.5L180.1,188.4L180.9,194.6L176.6,197.1L164.0,195.9L159.3,201.4L156.3,193.6L131.0,192.4L132.6,187.9L130.6,183.7L148.1,168.6L144.0,167.7L146.9,160.8L144.3,155.3L146.0,151.8L159.6,147.5L161.4,142.1L165.1,143.5L173.0,137.2L173.0,139.0Z" fill="#c93b8f" stroke="#fbfaf6" stroke-width="0.7" stroke-linejoin="round"><title>Punjab: women 54.8%, men 78.2%, gap +23.4pp</title></path><path d="M131.0,192.3L144.3,193.0L146.0,206.1L151.2,204.4L156.2,208.1L162.9,207.5L166.3,221.2L177.7,230.9L174.4,232.2L176.5,232.7L175.0,237.1L180.5,237.6L179.0,234.2L182.9,233.6L181.9,230.4L185.7,230.9L187.2,234.9L194.8,229.9L194.9,241.5L198.6,239.8L197.8,238.0L203.2,238.5L204.1,244.2L211.2,251.2L207.5,253.4L213.0,255.0L205.9,258.3L206.5,260.8L212.9,256.8L223.7,257.1L220.0,262.2L199.6,271.6L186.0,282.6L187.7,288.5L192.1,291.2L204.6,289.1L205.4,295.5L193.9,297.6L195.9,300.6L192.7,301.7L198.3,307.0L196.2,309.3L193.0,307.7L194.8,316.3L190.6,315.4L190.4,313.0L187.0,315.6L180.3,314.5L179.7,312.0L175.2,320.5L166.9,323.3L164.2,320.8L165.4,318.0L169.4,319.7L172.2,317.5L170.0,310.5L173.8,309.4L172.3,303.6L159.1,303.8L158.9,299.8L163.4,300.8L160.1,300.2L161.9,297.0L157.9,296.9L155.5,300.8L151.3,298.4L151.3,302.3L155.0,303.1L152.3,305.2L150.3,302.2L148.4,308.2L151.5,309.2L149.3,313.1L152.3,313.5L154.4,318.4L153.3,326.9L144.3,333.3L149.1,335.8L140.2,339.0L132.7,332.3L125.5,330.7L126.1,327.1L119.8,323.6L120.0,316.4L117.3,318.8L113.9,315.2L117.0,311.3L114.1,308.6L110.5,312.2L102.4,308.3L100.8,310.4L96.2,306.8L98.4,306.0L92.0,304.1L87.9,306.3L72.2,304.9L62.8,289.6L62.6,283.1L54.4,283.0L50.5,277.8L52.0,265.0L44.6,264.1L37.5,259.5L39.7,251.7L56.2,234.1L60.4,233.8L67.2,240.6L88.7,235.1L99.1,218.0L110.9,212.4L120.4,193.1L132.6,187.7L131.0,192.3Z" fill="#7e2367" stroke="#fbfaf6" stroke-width="0.7" stroke-linejoin="round"><title>Rajasthan: women 36.9%, men 65.2%, gap +28.3pp</title></path><path d="M444.0,232.1L449.0,236.5L446.6,243.5L449.5,249.4L439.4,253.7L432.3,252.5L431.3,244.9L434.6,237.7L432.9,235.3L444.0,232.1Z" fill="#e6f5d0" stroke="#fbfaf6" stroke-width="0.7" stroke-linejoin="round"><title>Sikkim: women 76.7%, men 78.2%, gap +1.5pp</title></path><path d="M246.0,630.3L248.7,633.9L243.9,631.9L246.0,630.3ZM262.2,541.2L267.5,543.0L266.0,557.1L257.1,574.9L253.0,574.1L256.4,577.7L257.5,595.3L254.3,596.6L257.4,598.8L258.1,609.6L245.6,610.5L237.2,626.9L243.4,631.3L225.9,635.3L221.7,639.8L223.0,642.6L219.6,650.6L208.6,656.8L203.7,655.9L198.9,652.2L202.6,647.1L199.8,637.0L205.4,626.7L200.2,624.4L202.9,611.6L201.7,608.8L196.3,611.6L193.1,609.8L194.8,599.7L189.5,596.4L192.6,593.9L191.1,590.4L185.3,591.0L187.2,587.4L180.5,582.9L186.4,580.0L193.5,582.6L194.8,578.2L205.8,578.9L207.2,575.1L211.1,574.9L213.2,571.3L206.8,568.4L209.8,566.0L209.5,559.7L212.5,559.5L214.5,555.4L227.8,560.6L233.1,551.2L242.6,552.3L248.4,548.4L248.5,545.5L255.2,548.3L262.2,541.2Z" fill="#c93b8f" stroke="#fbfaf6" stroke-width="0.7" stroke-linejoin="round"><title>Tamil Nadu: women 46.9%, men 70.2%, gap +23.3pp</title></path><path d="M519.1,308.0L522.0,321.8L519.9,326.3L514.3,324.9L514.6,330.1L510.3,334.7L511.6,338.3L507.0,341.5L502.8,334.3L501.5,338.3L497.3,324.6L501.9,316.8L506.6,317.4L508.1,314.2L510.1,316.1L509.7,313.8L513.1,316.2L513.4,312.0L519.1,308.0Z" fill="#c93b8f" stroke="#fbfaf6" stroke-width="0.7" stroke-linejoin="round"><title>Tripura: women 22.9%, men 45.7%, gap +22.8pp</title></path><path d="M209.4,183.1L216.7,186.6L211.8,194.5L217.9,201.4L226.9,196.6L237.7,203.3L233.3,206.3L248.1,216.1L255.8,215.3L259.9,219.0L263.1,216.6L271.6,222.5L272.7,219.6L300.6,237.3L304.5,235.9L312.6,241.0L318.1,240.1L318.6,244.8L328.3,245.8L331.0,248.4L332.5,245.3L337.3,245.5L343.7,248.5L346.5,257.7L350.6,258.4L354.2,263.3L347.2,263.0L343.4,265.7L349.1,268.7L345.5,272.9L358.8,282.4L347.4,282.6L342.0,288.6L331.4,294.0L331.7,300.6L335.7,305.8L328.2,320.7L322.9,321.7L317.1,316.4L319.2,305.4L312.2,304.1L309.3,306.1L307.2,301.6L302.1,301.5L300.9,297.7L294.6,296.6L293.8,293.7L292.1,296.3L287.5,294.3L284.6,300.2L277.6,299.0L279.2,293.7L275.4,295.0L277.1,296.6L273.2,294.6L273.5,296.3L266.5,297.4L269.6,294.2L266.0,288.8L257.3,292.8L257.5,295.8L247.8,295.5L249.8,292.1L245.6,290.6L245.8,295.0L242.1,295.5L239.5,292.0L236.7,294.3L238.4,290.4L236.0,293.0L234.8,291.6L238.9,289.9L237.9,286.0L235.9,288.7L233.7,287.2L234.4,290.3L232.0,288.4L227.2,291.7L230.2,292.4L234.7,301.8L234.1,306.2L236.9,305.5L238.7,311.6L235.0,315.3L228.9,310.7L225.4,312.6L221.6,300.9L227.6,295.1L224.4,289.9L227.3,285.9L235.2,284.6L234.0,282.0L242.1,267.2L239.2,262.1L222.6,258.9L222.7,256.4L218.6,258.4L212.9,256.8L206.0,260.3L205.9,258.3L213.0,255.0L207.9,253.9L211.2,251.2L203.6,242.5L202.8,238.3L208.3,235.3L208.4,229.0L201.1,217.2L198.8,200.3L201.0,193.5L209.4,183.1Z" fill="#7e2367" stroke="#fbfaf6" stroke-width="0.7" stroke-linejoin="round"><title>Uttar Pradesh: women 30.6%, men 59.1%, gap +28.5pp</title></path><path d="M243.5,163.1L248.1,169.8L257.5,171.0L265.3,175.6L265.2,179.5L282.2,186.4L268.4,197.1L269.3,200.4L265.8,203.6L266.9,208.7L260.3,219.0L255.8,215.3L248.1,216.1L242.2,210.3L237.3,209.8L233.3,206.3L237.7,203.3L231.0,201.1L228.2,197.1L225.2,196.1L217.9,201.4L211.8,194.5L216.7,186.6L208.9,183.0L214.2,180.5L211.6,175.5L215.8,167.3L225.7,164.4L238.2,168.4L240.3,160.7L243.5,163.1Z" fill="#7e2367" stroke="#fbfaf6" stroke-width="0.7" stroke-linejoin="round"><title>Uttarakhand: women 45.1%, men 74.6%, gap +29.5pp</title></path><path d="M448.0,363.2L451.0,364.3L449.1,365.5L448.0,363.2ZM447.5,361.1L449.5,363.0L446.2,362.4L447.5,361.1ZM445.0,357.1L447.0,357.9L445.6,361.4L445.0,357.1ZM448.3,353.8L449.8,358.0L447.3,356.7L448.3,353.8ZM433.0,252.8L447.3,252.5L454.3,259.5L459.5,258.3L469.7,261.7L469.9,267.1L463.3,277.4L455.0,273.8L453.5,268.2L450.7,266.8L449.8,268.8L453.0,271.2L448.2,271.7L438.3,264.1L437.4,266.5L441.4,269.0L434.1,273.6L432.8,281.0L436.0,280.7L441.8,287.1L447.5,286.8L451.7,291.7L449.9,294.3L439.7,293.7L438.8,299.0L433.2,299.2L430.5,304.9L437.4,310.9L445.9,313.2L446.6,319.4L442.5,322.1L442.2,326.7L447.2,329.8L445.6,334.9L451.4,335.8L448.2,340.2L450.4,347.5L447.4,345.9L450.6,348.5L448.4,352.3L444.7,348.9L448.9,354.0L445.8,357.4L443.8,356.9L444.4,354.3L443.2,363.3L440.8,364.1L442.1,360.7L440.3,363.7L440.1,361.3L439.0,363.9L438.3,362.1L438.6,365.8L437.8,363.1L435.9,364.0L436.1,367.2L433.8,364.1L434.6,358.0L431.8,357.0L432.5,355.0L430.0,356.3L427.8,352.1L434.3,359.4L431.6,361.2L429.5,359.3L431.4,361.3L428.8,365.7L419.3,369.8L414.1,362.5L409.7,364.4L409.4,360.6L403.0,358.5L406.7,355.3L404.0,349.4L396.7,345.0L399.3,340.6L392.2,340.4L384.2,334.7L385.0,330.3L388.9,329.8L388.7,327.9L394.2,331.4L397.2,326.9L404.7,325.7L404.7,322.7L414.2,322.8L414.1,318.2L418.8,319.5L419.5,316.6L423.8,315.8L425.4,306.7L428.4,306.5L426.4,302.8L429.7,300.1L425.5,295.8L427.2,292.0L425.2,289.2L431.8,287.2L431.3,283.2L426.1,278.3L436.5,269.1L435.2,264.9L432.5,265.3L434.3,260.3L430.6,250.8L433.0,252.8Z" fill="#f599c4" stroke="#fbfaf6" stroke-width="0.7" stroke-linejoin="round"><title>West Bengal: women 25.5%, men 46.7%, gap +21.2pp</title></path></g><text x="20" y="670" font-size="12" font-weight="600" fill="#222">Men's internet usage minus women's (percentage points)</text><rect x="20" y="682" width="70" height="14" fill="#e6f5d0" stroke="#444" stroke-width="0.4"/><text x="55" y="710" font-size="11" fill="#333" text-anchor="middle"><5</text><rect x="98" y="682" width="70" height="14" fill="#fde0ef" stroke="#444" stroke-width="0.4"/><text x="133" y="710" font-size="11" fill="#333" text-anchor="middle">5–15</text><rect x="176" y="682" width="70" height="14" fill="#f599c4" stroke="#444" stroke-width="0.4"/><text x="211" y="710" font-size="11" fill="#333" text-anchor="middle">15–22</text><rect x="254" y="682" width="70" height="14" fill="#c93b8f" stroke="#444" stroke-width="0.4"/><text x="289" y="710" font-size="11" fill="#333" text-anchor="middle">22–28</text><rect x="332" y="682" width="70" height="14" fill="#7e2367" stroke="#444" stroke-width="0.4"/><text x="367" y="710" font-size="11" fill="#333" text-anchor="middle">28–34</text><rect x="410" y="682" width="70" height="14" fill="#3b0c3a" stroke="#444" stroke-width="0.4"/><text x="445" y="710" font-size="11" fill="#333" text-anchor="middle">34+</text><text x="20" y="752" font-size="10" fill="#777">Source: NFHS-5 Compendium of Fact Sheets, IIPS/MoHFW. Computed gap = men% − women% per state factsheet.</text></svg>